<svg xmlns="http://www.w3.org/2000/svg" fill="rgba(0,0,0,0.65)" xmlns:xlink="http://www.w3.org/1999/xlink" version="1.1" x="0px" y="0px" viewBox="0 0 65 81.25" enable-background="new 0 0 65 65" xml:space="preserve"><g><rect x="27.7" y="5.2" width="1.6" height="1.5"/><path d="M41.8,4.9h-7.7C33.7,2.2,31.3,0,28.4,0c-2.9,0-5.3,2.2-5.6,4.9h-7.7v3.5H4.3V65h48.2V8.5H41.8V4.9z M16.6,6.4h7.7V5.7   c0-2.3,1.9-4.2,4.2-4.2c2.3,0,4.2,1.9,4.2,4.2v0.7h7.7v4.8H16.6V6.4z M51.1,10v53.5H5.8V10h9.3v2.7h26.7V10H51.1z"/><path d="M58,32.2l-2.6,5.3v24.8c0,1.5,1.2,2.6,2.6,2.6c1.5,0,2.6-1.2,2.6-2.6V37.5L58,32.2z M58,35.6l1.1,2.3V39h-2.3v-1.1L58,35.6   z M59.2,40.4v18.5h-2.3V40.4H59.2z M58,63.5c-0.6,0-1.1-0.5-1.1-1.1v-1.9h2.3v1.9C59.2,63,58.7,63.5,58,63.5z"/><rect x="25.9" y="20.5" width="19.7" height="1.5"/><rect x="25.9" y="24.6" width="13.6" height="1.5"/><polygon points="14.5,24.4 13.3,23.2 12.3,24.2 14.5,26.5 19.3,21.6 18.3,20.6  "/><path d="M15.8,16.8c-3.6,0-6.4,2.9-6.4,6.4s2.9,6.4,6.4,6.4s6.4-2.9,6.4-6.4S19.4,16.8,15.8,16.8z M15.8,28.2c-2.7,0-5-2.2-5-5   c0-2.7,2.2-5,5-5c2.7,0,5,2.2,5,5C20.8,26,18.5,28.2,15.8,28.2z"/><rect x="25.9" y="36" width="19.7" height="1.5"/><rect x="25.9" y="40.1" width="13.6" height="1.5"/><polygon points="14.5,39.9 13.3,38.7 12.3,39.8 14.5,42 19.3,37.2 18.3,36.1  "/><path d="M15.8,32.4c-3.6,0-6.4,2.9-6.4,6.4c0,3.6,2.9,6.4,6.4,6.4s6.4-2.9,6.4-6.4C22.3,35.3,19.4,32.4,15.8,32.4z M15.8,43.8   c-2.7,0-5-2.2-5-5c0-2.7,2.2-5,5-5c2.7,0,5,2.2,5,5C20.8,41.5,18.5,43.8,15.8,43.8z"/><rect x="25.9" y="51.6" width="19.7" height="1.5"/><rect x="25.9" y="55.7" width="13.6" height="1.5"/><polygon points="14.5,55.5 13.3,54.3 12.3,55.3 14.5,57.6 19.3,52.7 18.3,51.7  "/><path d="M15.8,47.9c-3.6,0-6.4,2.9-6.4,6.4s2.9,6.4,6.4,6.4s6.4-2.9,6.4-6.4S19.4,47.9,15.8,47.9z M15.8,59.3c-2.7,0-5-2.2-5-5   c0-2.7,2.2-5,5-5c2.7,0,5,2.2,5,5C20.8,57.1,18.5,59.3,15.8,59.3z"/></g></svg>