<svg xmlns="http://www.w3.org/2000/svg" fill="rgba(0,0,0,0.65)" xmlns:xlink="http://www.w3.org/1999/xlink" version="1.1" x="0px" y="0px" viewBox="0 0 65 81.25" enable-background="new 0 0 65 65" xml:space="preserve"><g><g><g><path d="M37.2,42.2C37.2,42.2,37.2,42.2,37.2,42.2h-9.4c-3.7,0-7.1-2.2-8.7-5.5c-0.1-0.2-0.1-0.5,0-0.7c0.1-0.2,0.4-0.3,0.6-0.3     l4.6,0c0.2,0,0.4,0.1,0.5,0.2c0.8,0.7,1.9,1.2,3,1.2h9.4c1.1,0,2.2-0.4,3-1.2c0.1-0.1,0.3-0.2,0.5-0.2l0,0l4.6,0     c0.3,0,0.5,0.1,0.6,0.3c0.1,0.2,0.2,0.5,0,0.7C44.3,40,40.9,42.2,37.2,42.2z M21,37c1.5,2.2,4,3.6,6.8,3.6h9.4     c2.7,0,5.3-1.4,6.8-3.6l-3,0c-1.1,0.9-2.4,1.4-3.8,1.4h-9.4c-1.4,0-2.7-0.5-3.8-1.4L21,37z"/></g><g><path d="M45.3,29.5C45.3,29.5,45.3,29.5,45.3,29.5L45.3,29.5l-4.6,0c-0.2,0-0.4-0.1-0.5-0.2c-0.8-0.7-1.9-1.2-3-1.2h-9.4     c-1.1,0-2.2,0.4-3,1.2c-0.1,0.1-0.3,0.2-0.5,0.2l-4.6,0c-0.3,0-0.5-0.1-0.6-0.3c-0.1-0.2-0.2-0.5,0-0.7c1.6-3.4,5-5.5,8.7-5.5     h9.4c3.7,0,7,2.1,8.7,5.4c0.1,0.1,0.2,0.3,0.2,0.5C46,29.1,45.7,29.5,45.3,29.5z M27.8,24.3c-2.7,0-5.3,1.4-6.8,3.6l3,0     c1.1-0.9,2.4-1.4,3.8-1.4h9.4c1.4,0,2.7,0.5,3.8,1.4l3,0c-1.5-2.2-4-3.6-6.8-3.6H27.8z"/></g><g><g><path d="M50.1,34.7H39c-1.2,0-2.2-1-2.2-2.2c0-1.2,1-2.2,2.2-2.2h11.1c1.2,0,2.2,1,2.2,2.2C52.3,33.7,51.3,34.7,50.1,34.7z       M39,31.8c-0.4,0-0.7,0.3-0.7,0.7c0,0.4,0.3,0.7,0.7,0.7h11.1c0.4,0,0.7-0.3,0.7-0.7c0-0.4-0.3-0.7-0.7-0.7H39z"/></g><g><path d="M26,34.7H14.9c-1.2,0-2.2-1-2.2-2.2c0-1.2,1-2.2,2.2-2.2H26c1.2,0,2.2,1,2.2,2.2C28.3,33.7,27.3,34.7,26,34.7z       M14.9,31.8c-0.4,0-0.7,0.3-0.7,0.7c0,0.4,0.3,0.7,0.7,0.7H26c0.4,0,0.7-0.3,0.7-0.7c0-0.4-0.3-0.7-0.7-0.7H14.9z"/></g></g></g><g><g><path d="M27.9,57.1l-14.3-8.2l0.4-0.6c0.4-0.7,0.6-1.5,0.6-2.3c0-2.7-2.2-4.9-4.9-4.9H8.9V24.2h0.8c2.7,0,4.9-2.2,4.9-4.9     c0-0.9-0.2-1.7-0.6-2.4l-0.4-0.6l14.3-8.3l0.4,0.7c0.9,1.5,2.5,2.4,4.2,2.4c1.7,0,3.4-0.9,4.2-2.4l0.4-0.7l14.3,8.3l-0.4,0.6     c-0.4,0.7-0.6,1.6-0.6,2.4c0,2.7,2.2,4.9,4.9,4.9h0.8v16.7h-0.8c-2.7,0-4.9,2.2-4.9,4.9c0,0.8,0.2,1.6,0.6,2.3l0.4,0.6l-14.3,8.2     l-0.4-0.7c-0.9-1.5-2.5-2.4-4.2-2.4c-1.7,0-3.4,0.9-4.2,2.4L27.9,57.1z M32.5,52.5c2,0,3.9,1,5.1,2.6l11.8-6.8     c-0.3-0.8-0.5-1.6-0.5-2.4c0-3.3,2.5-6,5.6-6.4V25.6c-3.2-0.4-5.6-3.1-5.6-6.3c0-0.9,0.2-1.7,0.5-2.5L37.6,10     c-1.2,1.6-3.1,2.6-5.1,2.6c-2,0-3.9-1-5.1-2.6l-11.8,6.8c0.3,0.8,0.5,1.6,0.5,2.5c0,3.3-2.5,6-5.6,6.3v13.8     c3.2,0.4,5.6,3.1,5.6,6.4c0,0.8-0.2,1.7-0.5,2.4L27.4,55C28.6,53.4,30.5,52.5,32.5,52.5z"/></g><g><path d="M32.5,65.2c-3.5,0-6.4-2.9-6.4-6.4c0-1.1,0.3-2.2,0.9-3.2c1.1-2,3.3-3.2,5.5-3.2c2.3,0,4.4,1.2,5.5,3.2     c0.6,1,0.9,2.1,0.9,3.2C38.9,62.4,36,65.2,32.5,65.2z M32.5,54c-1.7,0-3.4,0.9-4.2,2.4c-0.4,0.8-0.7,1.6-0.7,2.4     c0,2.7,2.2,4.9,4.9,4.9c2.7,0,4.9-2.2,4.9-4.9c0-0.9-0.2-1.7-0.7-2.4C35.9,54.9,34.2,54,32.5,54z"/></g><g><g><path d="M55.3,52.2c-2.3,0-4.5-1.3-5.6-3.3c-0.5-0.9-0.8-2-0.8-3.1c0-3.5,2.9-6.4,6.4-6.4c3.5,0,6.4,2.9,6.4,6.4      C61.7,49.3,58.8,52.2,55.3,52.2z M55.3,40.9c-2.7,0-4.9,2.2-4.9,4.9c0,0.8,0.2,1.6,0.6,2.3c0.9,1.6,2.5,2.5,4.3,2.5      c2.7,0,4.9-2.2,4.9-4.9C60.2,43.1,58,40.9,55.3,40.9z"/></g><g><path d="M55.3,25.7c-3.5,0-6.4-2.9-6.4-6.4c0-1.1,0.3-2.2,0.8-3.2c1.1-2,3.3-3.2,5.5-3.2c3.5,0,6.4,2.9,6.4,6.4      C61.7,22.8,58.8,25.7,55.3,25.7z M55.3,14.4c-1.8,0-3.4,0.9-4.2,2.5c-0.4,0.7-0.6,1.6-0.6,2.4c0,2.7,2.2,4.9,4.9,4.9      c2.7,0,4.9-2.2,4.9-4.9C60.2,16.6,58,14.4,55.3,14.4z"/></g></g><g><g><path d="M9.7,52.2c-3.5,0-6.4-2.9-6.4-6.4c0-3.5,2.9-6.4,6.4-6.4c3.5,0,6.4,2.9,6.4,6.4c0,1.1-0.3,2.1-0.8,3.1      C14.2,50.9,12,52.2,9.7,52.2z M9.7,40.9c-2.7,0-4.9,2.2-4.9,4.9c0,2.7,2.2,4.9,4.9,4.9c1.8,0,3.4-1,4.3-2.5      c0.4-0.7,0.6-1.5,0.6-2.3C14.6,43.1,12.4,40.9,9.7,40.9z"/></g><g><path d="M9.7,25.7c-3.5,0-6.4-2.9-6.4-6.4c0-3.5,2.9-6.4,6.4-6.4c2.3,0,4.4,1.2,5.6,3.2c0.5,0.9,0.8,2,0.8,3.2      C16.1,22.8,13.2,25.7,9.7,25.7z M9.7,14.4c-2.7,0-4.9,2.2-4.9,4.9c0,2.7,2.2,4.9,4.9,4.9c2.7,0,4.9-2.2,4.9-4.9      c0-0.9-0.2-1.7-0.6-2.4C13.1,15.3,11.4,14.4,9.7,14.4z"/></g></g><g><path d="M32.5,12.5c-2.3,0-4.4-1.2-5.5-3.2c-0.6-1-0.9-2.1-0.9-3.2c0-3.5,2.9-6.4,6.4-6.4c3.5,0,6.4,2.9,6.4,6.4     c0,1.1-0.3,2.2-0.9,3.2C36.9,11.3,34.8,12.5,32.5,12.5z M32.5,1.2c-2.7,0-4.9,2.2-4.9,4.9c0,0.9,0.2,1.7,0.7,2.4     c0.9,1.5,2.5,2.5,4.2,2.5c1.7,0,3.4-0.9,4.2-2.4c0.4-0.8,0.7-1.6,0.7-2.4C37.4,3.4,35.2,1.2,32.5,1.2z"/></g></g></g></svg>