<svg xmlns="http://www.w3.org/2000/svg" fill="rgba(0,0,0,0.65)" xmlns:xlink="http://www.w3.org/1999/xlink" version="1.1" x="0px" y="0px" viewBox="0 0 65 81.25" enable-background="new 0 0 65 65" xml:space="preserve"><g><path d="M16.6,15.1c-0.1-0.1-0.2-0.2-0.2-0.4h-1.5c0,0.6,0.3,1.2,0.7,1.6c0.3,0.2,0.6,0.4,0.9,0.5v0.8H18v-0.8   c0.3-0.1,0.6-0.3,0.9-0.5c0.5-0.4,0.7-1,0.7-1.6c0-0.6-0.3-1.1-0.7-1.6c-0.4-0.4-1-0.6-1.6-0.6c-0.3,0-0.5-0.1-0.7-0.2   c-0.1-0.1-0.2-0.2-0.2-0.4c0-0.2,0.1-0.3,0.2-0.4c0.3-0.3,1-0.3,1.3,0c0.1,0.1,0.2,0.2,0.2,0.4h1.5c0-0.6-0.3-1.1-0.7-1.6   C18.6,10,18.3,9.9,18,9.8V9h-1.5v0.9c-0.3,0.1-0.6,0.2-0.9,0.5c-0.5,0.4-0.7,1-0.7,1.6c0,0.6,0.3,1.2,0.7,1.6   c0.4,0.4,1,0.6,1.6,0.6c0.3,0,0.5,0.1,0.7,0.2c0.1,0.1,0.2,0.2,0.2,0.4c0,0.2-0.1,0.4-0.2,0.4C17.5,15.4,16.9,15.4,16.6,15.1z"/><path d="M34.7,2.5H-0.2V24h34.9V2.5z M33.2,22.5H1.3V4h31.9V22.5z"/><path d="M6.7,19.3V20h21.1v-0.8c0-1.2,1-2.3,2.3-2.3h0.8V9.4H30c-1.2,0-2.3-1-2.3-2.3V6.4H6.7v0.8c0,1.2-1,2.3-2.3,2.3H3.7V17h0.8   C5.7,17,6.7,18,6.7,19.3z M5.2,10.9c1.5-0.3,2.6-1.5,2.9-2.9h18.2c0.3,1.5,1.5,2.6,2.9,2.9v4.8c-1.5,0.3-2.6,1.5-2.9,2.9H8.1   c-0.3-1.5-1.5-2.6-2.9-2.9V10.9z"/><rect x="51" y="57.9" width="1.5" height="1.5"/><rect x="42.6" y="57.9" width="1.5" height="1.5"/><rect x="46.8" y="57.9" width="1.5" height="1.5"/><rect x="55.2" y="57.9" width="1.5" height="1.5"/><rect x="38.4" y="57.9" width="1.5" height="1.5"/><rect x="59.4" y="57.9" width="1.5" height="1.5"/><rect x="34.2" y="57.9" width="1.5" height="1.5"/><path d="M43.2,44.8h-9.3v6.1h9.3V44.8z M41.7,49.4h-6.3v-3.1h6.3V49.4z"/><path d="M30.3,41v21.5h34.9V41H30.3z M63.8,42.5v12.3H31.8V42.5H63.8z M31.8,61v-4.6h31.9V61H31.8z"/><rect x="48.9" y="49.1" width="12.5" height="1.5"/><rect x="53" y="46.1" width="8.3" height="1.5"/><path d="M7.9,40.3h6.6L7.1,33l-7.3,7.3h6.6v12.2h20.7V51H7.9V40.3z M7.1,35.1l3.7,3.7H3.4L7.1,35.1z"/><path d="M57.1,24.7h-6.6l7.3,7.3l7.3-7.3h-6.6V12.5H37.9V14h19.2V24.7z M57.9,29.9l-3.7-3.7h7.4L57.9,29.9z"/></g></svg>