<svg xmlns="http://www.w3.org/2000/svg" fill="rgba(0,0,0,0.65)" version="1.1" x="0px" y="0px" viewBox="0 0 60 60" xml:space="preserve"><path d="M59 42c0.553 0 1-0.448 1-1V1c0-0.552-0.447-1-1-1H43c-0.553 0-1 0.448-1 1v40c0 0.552 0.447 1 1 1h4v10H34V42h4c0.553 0 1-0.448 1-1V1c0-0.552-0.447-1-1-1H22c-0.553 0-1 0.448-1 1v40c0 0.552 0.447 1 1 1h4v10H13V42h4c0.552 0 1-0.448 1-1V1c0-0.552-0.448-1-1-1H1C0.448 0 0 0.448 0 1v40c0 0.552 0.448 1 1 1h4v10H0v2h6 3v-2H7V42h4v11c0 0.552 0.448 1 1 1h15 3v-2h-2V42h4v11c0 0.552 0.447 1 1 1h15 3v-2h-2V42h4v11c0 0.552 0.447 1 1 1h6v-2h-5V42H59zM16 2v33H2V2H16zM6 40H2v-3h14v3h-4H6zM37 2v33H23V2H37zM27 40h-4v-3h14v3h-4H27zM58 2v33H44V2H58zM48 40h-4v-3h14v3h-4H48z"/><rect y="58" width="60" height="2"/><rect x="5" y="14" width="8" height="2"/><rect x="5" y="19" width="8" height="2"/><rect x="5" y="24" width="8" height="2"/><rect x="5" y="29" width="8" height="2"/><rect x="26" y="14" width="8" height="2"/><rect x="26" y="19" width="8" height="2"/><rect x="26" y="24" width="8" height="2"/><rect x="26" y="29" width="8" height="2"/><rect x="47" y="14" width="8" height="2"/><rect x="47" y="19" width="8" height="2"/><rect x="47" y="24" width="8" height="2"/><rect x="47" y="29" width="8" height="2"/><path d="M9 10c1.654 0 3-1.346 3-3s-1.346-3-3-3S6 5.346 6 7 7.346 10 9 10zM9 6c0.551 0 1 0.449 1 1S9.551 8 9 8 8 7.551 8 7 8.449 6 9 6zM30 10c1.654 0 3-1.346 3-3s-1.346-3-3-3 -3 1.346-3 3S28.346 10 30 10zM30 6c0.552 0 1 0.449 1 1s-0.448 1-1 1 -1-0.449-1-1S29.448 6 30 6zM51 10c1.654 0 3-1.346 3-3s-1.346-3-3-3 -3 1.346-3 3S49.346 10 51 10zM51 6c0.552 0 1 0.449 1 1s-0.448 1-1 1 -1-0.449-1-1S50.448 6 51 6z"/></svg>