<svg xmlns="http://www.w3.org/2000/svg" fill="rgba(0,0,0,0.65)" version="1.1" x="0px" y="0px" viewBox="0 0 59.414 60" xml:space="preserve"><path d="M50.707 21c0-11.58-9.421-21-21-21 -11.58 0-21 9.42-21 21 0 8.466 5.195 16.173 13 19.397V46v7c0 0.552 0.448 1 1 1h2v6h2v-6h4v-2h-5 -2v-5h12v5h-2c-0.553 0-1 0.448-1 1v7h2v-6h2c0.553 0 1-0.448 1-1v-7 -5.603C45.512 37.173 50.707 29.466 50.707 21zM36.356 38.779c-0.391 0.146-0.649 0.52-0.649 0.937V45h-5V16h3v-2h-8v2h3v29h-5v-5.284c0-0.417-0.259-0.791-0.649-0.937C15.67 36.014 10.707 28.869 10.707 21c0-10.477 8.523-19 19-19s19 8.523 19 19C48.707 28.869 43.744 36.014 36.356 38.779zM58 28.293l-17 17c-0.188 0.188-0.293 0.442-0.293 0.707v14h2V46.414l16.707-16.707L58 28.293zM1.414 28.293L0 29.707l16.707 16.707V60h2V46c0-0.265-0.105-0.52-0.293-0.707L1.414 28.293zM48 48.293c-0.188 0.188-0.293 0.442-0.293 0.707v11h2V49.414l7.707-7.707L56 40.293 48 48.293zM3.414 40.293L2 41.707l7.707 7.707V60h2V49c0-0.265-0.105-0.52-0.293-0.707L3.414 40.293z"/></svg>