<?xml version="1.0" encoding="utf-8"?>
<svg id="master-artboard" viewBox="0 0 1400 980" version="1.1" xmlns="http://www.w3.org/2000/svg" x="0px" y="0px" style="enable-background:new 0 0 336 235.2;" width="1400px" height="980px"><g transform="matrix(1.9140626192092896, 0, 0, 1.9140626192092896, 209.99996282000302, 0)"><path d="M 512 256 A 256 256 0 0 1 256 512 A 256 256 0 0 1 0 256 A 256 256 0 0 1 256 0 A 256 256 0 0 1 512 256 Z" style="fill:#273B7A;"/><path style="fill:#FFFFFF;" d="M330.821,429.92H181.71c-2.629,0-5.079-1.331-6.509-3.539c-1.429-2.205-1.645-4.987-0.571-7.387&#10;&#9;l70.909-158.523c1.345-3.007,4.448-4.83,7.727-4.561c2.191,0.183,3.705,0.212,6.023,0.022c3.277-0.271,6.372,1.558,7.716,4.563&#10;&#9;l70.897,158.499c1.074,2.401,0.859,5.182-0.571,7.387C335.901,428.587,333.452,429.92,330.821,429.92z M193.679,414.405h125.174&#10;&#9;l-62.588-139.921L193.679,414.405z"/><path style="fill:#D0D1D3;" d="M337.903,418.994l-70.897-158.499c-1.343-3.005-4.437-4.836-7.716-4.563&#10;&#9;c-1.486,0.122-2.648,0.147-3.863,0.105v20.327l0.84-1.877l62.588,139.921h-63.428v15.515h75.395c2.629,0,5.079-1.331,6.509-3.539&#10;&#9;C338.761,424.176,338.977,421.393,337.903,418.994z"/><g>
	<path style="fill:#EAA22F;" d="M256,348.565c-66.301,0-120.241-53.939-120.241-120.239c0-66.301,53.939-120.241,120.241-120.241&#10;&#9;&#9;s120.241,53.939,120.241,120.241C376.241,294.626,322.301,348.565,256,348.565z M256,123.601&#10;&#9;&#9;c-57.746,0-104.726,46.98-104.726,104.726S198.254,333.05,256,333.05s104.726-46.978,104.726-104.724S313.746,123.601,256,123.601z&#10;&#9;&#9;"/>
	<path style="fill:#EAA22F;" d="M256,313.878c-47.173,0-85.552-38.379-85.552-85.552c0-47.175,38.379-85.554,85.552-85.554&#10;&#9;&#9;s85.552,38.379,85.552,85.554S303.173,313.878,256,313.878z M256,158.287c-38.617,0-70.037,31.42-70.037,70.039&#10;&#9;&#9;c0,38.617,31.42,70.037,70.037,70.037s70.037-31.42,70.037-70.037C326.037,189.707,294.617,158.287,256,158.287z"/>
</g><path d="M 122.639 220.574005 H 219.625999 V 236.089005 H 122.639 V 220.574005 Z" style="fill:#FF5419;"/><path d="M 292.373993 220.574005 H 389.360992 V 236.089005 H 292.373993 V 220.574005 Z" style="fill:#C92F00;"/><path d="M 248.242004 94.970001 H 263.757005 V 191.957001 H 248.242004 V 94.970001 Z" style="fill:#FF5419;"/><path d="M 255.431 94.970001 H 263.763 V 191.957001 H 255.431 V 94.970001 Z" style="fill:#C92F00;"/><path d="M 255.42599487304688 264.6969909667969 L 248.24200439453125 264.6969909667969 L 248.24200439453125 361.6889953613281 L 255.42599487304688 361.6889953613281 L 263.75799560546875 361.6889953613281 L 263.75799560546875 264.6969909667969 Z" style="fill:#FF5419;"/><path d="M 255.431 264.687988 H 263.763 V 361.674988 H 255.431 V 264.687988 Z" style="fill:#C92F00;"/><path d="M 308.259003 119.816002 H 323.772002 V 216.802002 H 308.259003 V 119.816002 Z" transform="matrix(-0.7071 -0.7071 0.7071 -0.7071 420.4607 510.7783)" style="fill:#D35933;"/><g>
	
		<path d="M 188.235001 239.843002 H 203.748 V 336.829002 H 188.235001 V 239.843002 Z" transform="matrix(-0.7071 -0.7071 0.7071 -0.7071 130.6939 630.8071)" style="fill:#FF7F4F;"/>
	
		<path d="M 147.496994 160.559998 H 244.482994 V 176.072997 H 147.496994 V 160.559998 Z" transform="matrix(-0.7071 -0.7071 0.7071 -0.7071 215.5571 425.9209)" style="fill:#FF7F4F;"/>
</g><path d="M 267.515015 280.579987 H 364.501015 V 296.092986 H 267.515015 V 280.579987 Z" transform="matrix(-0.7071 -0.7071 0.7071 -0.7071 335.5747 715.6725)" style="fill:#D35933;"/><path style="fill:#71E2EF;" d="M256,269.424c-22.662,0-41.098-18.435-41.098-41.098s18.435-41.1,41.098-41.1&#10;&#9;s41.098,18.437,41.098,41.1C297.098,250.989,278.662,269.424,256,269.424z M256,202.742c-14.107,0-25.583,11.476-25.583,25.584&#10;&#9;c0,14.107,11.476,25.583,25.583,25.583s25.583-11.476,25.583-25.583S270.107,202.742,256,202.742z"/><path style="fill:#02B2B2;" d="M256,187.227c-0.193,0-0.383,0.012-0.574,0.014v15.529c0.193-0.005,0.381-0.029,0.574-0.029&#10;&#9;c14.107,0,25.583,11.476,25.583,25.584c0,14.107-11.476,25.583-25.583,25.583c-0.193,0-0.381-0.024-0.574-0.029v15.529&#10;&#9;c0.191,0.003,0.381,0.014,0.574,0.014c22.662,0,41.098-18.435,41.098-41.098S278.662,187.227,256,187.227z"/><path style="fill:#EAA22F;" d="M155.977,112.88c-8.504,0-15.422,6.92-15.422,15.424s6.92,15.422,15.422,15.422&#10;&#9;c8.506,0,15.424-6.92,15.424-15.422C171.403,119.799,164.483,112.88,155.977,112.88z"/><path style="fill:#E09112;" d="M356.023,312.925c-8.506,0-15.424,6.92-15.424,15.422c0,8.506,6.92,15.424,15.424,15.424&#10;&#9;s15.422-6.92,15.422-15.424S364.525,312.925,356.023,312.925z"/><path style="fill:#EAA22F;" d="M266.905,75.967c-6.013-6.013-15.798-6.013-21.811,0c-6.013,6.013-6.013,15.798,0,21.811&#10;&#9;c3.007,3.006,6.956,4.51,10.905,4.51c3.949,0,7.899-1.503,10.905-4.51C272.918,91.765,272.918,81.982,266.905,75.967z"/><path style="fill:#E09112;" d="M266.905,75.967c-3.153-3.153-7.34-4.636-11.479-4.482v30.777c0.191,0.007,0.383,0.028,0.574,0.028&#10;&#9;c3.949,0,7.899-1.503,10.905-4.51C272.918,91.765,272.918,81.982,266.905,75.967z"/><path style="fill:#EAA22F;" d="M266.905,358.872c-6.013-6.013-15.798-6.013-21.811,0c-6.013,6.013-6.013,15.798,0,21.811&#10;&#9;c3.007,3.007,6.956,4.51,10.905,4.51c3.949,0,7.899-1.503,10.905-4.51C272.918,374.67,272.918,364.885,266.905,358.872z"/><path style="fill:#E09112;" d="M266.905,358.872c-3.153-3.153-7.34-4.636-11.479-4.482v30.777c0.191,0.007,0.383,0.028,0.574,0.028&#10;&#9;c3.949,0,7.899-1.503,10.905-4.51C272.918,374.67,272.918,364.885,266.905,358.872z"/><path style="fill:#EAA22F;" d="M125.452,217.421c-6.011-6.01-15.794-6.015-21.809-0.002c-2.913,2.913-4.518,6.787-4.518,10.905&#10;&#9;c0,4.122,1.605,7.994,4.518,10.907c3.006,3.005,6.956,4.508,10.904,4.508c3.949,0,7.899-1.503,10.905-4.51&#10;&#9;C131.467,233.217,131.467,223.434,125.452,217.421z"/><path style="fill:#E09112;" d="M408.357,217.421c-6.015-6.013-15.798-6.011-21.809,0c-6.013,6.013-6.013,15.796,0,21.809&#10;&#9;c3.007,3.007,6.954,4.51,10.905,4.51c3.948,0,7.897-1.503,10.904-4.508c2.913-2.913,4.518-6.787,4.518-10.907&#10;&#9;C412.875,224.206,411.27,220.334,408.357,217.421z"/><path style="fill:#EAA22F;" d="M155.977,312.925c-8.504,0-15.422,6.92-15.422,15.422c0,8.506,6.92,15.424,15.422,15.424&#10;&#9;c8.506,0,15.424-6.92,15.424-15.424C171.403,319.843,164.483,312.925,155.977,312.925z"/><path style="fill:#E09112;" d="M356.023,112.88c-8.506,0-15.424,6.92-15.424,15.424s6.92,15.422,15.424,15.422&#10;&#9;s15.422-6.92,15.422-15.422C371.445,119.799,364.525,112.88,356.023,112.88z"/><g>
</g><g>
</g><g>
</g><g>
</g><g>
</g><g>
</g><g>
</g><g>
</g><g>
</g><g>
</g><g>
</g><g>
</g><g>
</g><g>
</g><g>
</g></g></svg>