<?xml version="1.0" encoding="iso-8859-1"?>
<!-- Generator: Adobe Illustrator 19.0.0, SVG Export Plug-In . SVG Version: 6.00 Build 0)  -->
<svg version="1.1" id="Capa_1" xmlns="http://www.w3.org/2000/svg" xmlns:xlink="http://www.w3.org/1999/xlink" x="0px" y="0px"
	 viewBox="0 0 512 512" style="enable-background:new 0 0 512 512;" xml:space="preserve">
<path style="fill:#FFB64C;" d="M256,0C115.3,0,0,115.3,0,256s115.3,256,256,256s256-115.3,256-256S396.7,0,256,0z"/>
<path style="fill:#FF9F00;" d="M512,256c0,140.7-115.3,256-256,256V0C396.7,0,512,115.3,512,256z"/>
<path style="fill:#5A5A5A;" d="M481,256c0,62.1-25.201,118.2-66,159s-96.899,66-159,66C131.8,481,31,380.2,31,256
	c0-62.1,25.201-118.2,66-159c40.8-40.801,96.899-66,159-66s118.2,25.199,159,66C455.799,137.8,481,193.9,481,256z"/>
<path style="fill:#444444;" d="M481,256c0,62.1-25.201,118.2-66,159s-96.899,66-159,66V31c62.1,0,118.2,25.199,159,66
	C455.799,137.8,481,193.9,481,256z"/>
<path style="fill:#3AAAFF;" d="M214.398,144.086l-86.177-35.449c-5.566-2.271-12.012-0.996-16.318,3.267
	c-4.277,4.277-5.566,10.708-3.267,16.318l35.449,86.177c2.388,5.786,7.983,9.287,13.872,9.287c1.904,0,3.838-0.366,5.713-1.128
	l58.887-58.887C225.707,156.01,222.06,147.235,214.398,144.086z"/>
<path style="fill:#0095FF;" d="M400.097,111.903c-4.263-4.263-10.679-5.537-16.318-3.267l-86.177,35.449
	c-7.661,3.149-11.309,11.924-8.159,19.585l58.887,58.887c1.875,0.762,3.809,1.128,5.713,1.128c5.889,0,11.484-3.501,13.872-9.287
	l35.449-86.177C405.663,122.611,404.374,116.181,400.097,111.903z"/>
<path style="fill:#3AAAFF;" d="M222.558,348.329l-58.887-58.887c-7.646-3.12-16.421,0.513-19.585,8.159l-35.449,86.177
	c-2.3,5.61-1.011,12.041,3.267,16.318c4.363,4.363,10.839,5.528,16.318,3.267l86.177-35.449
	C222.06,364.765,225.707,355.99,222.558,348.329z"/>
<path style="fill:#0095FF;" d="M403.363,383.778l-35.449-86.177c-3.135-7.646-11.895-11.265-19.585-8.159l-58.887,58.887
	c-3.149,7.661,0.498,16.436,8.159,19.585l86.177,35.449c5.482,2.262,11.958,1.094,16.318-3.267
	C404.374,395.819,405.663,389.389,403.363,383.778z"/>
<path style="fill:#76E2F8;" d="M481,256c0-6.46-4.131-12.188-10.254-14.224l-142.881-57.642l-35.615,5.615L256,256l41.25,71.25
	l30.616,0.616l142.881-57.642C476.869,268.188,481,262.46,481,256z"/>
<g>
	<path style="fill:#9BFCFF;" d="M184.135,184.135L41.254,241.776C35.131,243.813,31,249.54,31,256
		c0,6.46,4.131,12.188,10.254,14.224l142.881,57.642l35.615-5.615L256,256l-32.813-62.813L184.135,184.135z"/>
	<path style="fill:#9BFCFF;" d="M328.001,183.999L256,256l-72.001-72.001l57.902-142.8c2.098-5.999,8.099-9.3,14.099-9.3
		s12.001,3.301,14.099,9.3L328.001,183.999z"/>
</g>
<path style="fill:#76E2F8;" d="M328.001,183.999L256,256V31.899c6,0,12.001,3.301,14.099,9.3L328.001,183.999z"/>
<path style="fill:#9BFCFF;" d="M328.001,327.999l-57.902,142.8c-1.8,6-7.5,10.201-14.099,10.201s-12.299-4.2-14.099-10.201
	l-57.902-142.8L256,256L328.001,327.999z"/>
<path style="fill:#76E2F8;" d="M328.001,327.999l-57.902,142.8c-1.8,6-7.5,10.201-14.099,10.201V256L328.001,327.999z"/>
<path style="fill:#5A5A5A;" d="M256,211c-24.901,0-45,20.099-45,45c0,24.899,20.099,45,45,45s45-20.101,45-45
	C301,231.099,280.901,211,256,211z"/>
<path style="fill:#444444;" d="M301,256c0,24.899-20.099,45-45,45v-90C280.901,211,301,231.099,301,256z"/>
<path style="fill:#E4FEFF;" d="M256,271c-8.271,0-15-6.729-15-15s6.729-15,15-15s15,6.729,15,15S264.271,271,256,271z"/>
<path style="fill:#9BFCFF;" d="M256,241L256,241v30l0,0c8.271,0,15-6.729,15-15S264.271,241,256,241z"/>
<g>
</g>
<g>
</g>
<g>
</g>
<g>
</g>
<g>
</g>
<g>
</g>
<g>
</g>
<g>
</g>
<g>
</g>
<g>
</g>
<g>
</g>
<g>
</g>
<g>
</g>
<g>
</g>
<g>
</g>
</svg>
