<svg xmlns="http://www.w3.org/2000/svg" id="master-artboard" viewBox="0 0 500 500" width="500" height="500">
  <g transform="matrix(15.62304632954601, 0, 0, 15.62304632954601, -0.000006142951860965695, 0.0000020476506961131236)">
    <path d="M5.97 20.66C5.17 18.15 5.44 14.15 7.19 12.66 6.7 11.41 6.85 9.37 7.5 8.39 9.45 8.48 10.64 9.33 11.87 10.15 13.39 9.71 14.99 9.5 17.07 9.61 17.95 9.66 18.86 10.06 19.52 9.99 20.17 9.93 20.89 9.21 21.51 8.93 22.33 8.57 23.03 8.43 23.97 8.39 24.42 9.42 24.71 11.12 24.28 12.36 26.05 13.88 26.67 17.57 25.81 20.59 27.83 20.74 30.15 20.6 32 20.93L32 0 0 0 0 20.94C1.76 20.62 3.89 20.67 5.97 20.66ZM25.58 21.35C27.82 21.53 30.04 21.73 32 22.18L32 21.09C30.39 20.86 28.48 20.61 26.65 20.74 26.21 20.77 25.55 20.72 25.58 21.35ZM3.82 20.74C2.62 20.79 1.2 20.91 0 21.07L0 22.21C1.88 21.71 4.05 21.5 6.35 21.42 6.19 20.43 4.73 20.7 3.82 20.74ZM25.58 21.5C24.44 23.74 22.15 24.85 18.99 25.08 19.33 25.82 19.98 26.1 20.14 27.29 20.33 28.72 19.98 30.67 20.15 32L32 32 32 22.28C30.05 21.94 27.84 21.56 25.58 21.5ZM11.87 29.35C9.66 29.79 7.95 29.29 7.12 27.9 6.74 27.28 6.65 26.55 6.2 26 5.75 25.45 5.03 25.37 4.82 24.63 7.55 23.97 7.65 27.44 10.1 27.52 10.86 27.55 11.25 27.31 11.94 27.14 12.14 26.27 12.55 25.62 13.17 25.16 10.12 24.75 7.6 23.8 6.43 21.51 4.13 21.62 2 21.9 0 22.31L0 32.01 11.9 32.01C11.94 31.22 11.76 30.29 11.87 29.35Z"/>
  </g>
  <path d="M213.33 458.95" style="paint-order:fill;stroke-width:10;stroke:rgb(0, 0, 0)"/>
</svg>