<?xml version="1.0" encoding="UTF-8"?>
<svg width="749px" height="160px" viewBox="25 20 709 110" version="1.1" xmlns="http://www.w3.org/2000/svg" xmlns:xlink="http://www.w3.org/1999/xlink">
    <g id="Page-1" stroke="none" stroke-width="1" fill="none" fill-rule="evenodd">
        <g id="runningbetaname" fill="#000">
            <g id="Group" transform="translate(26.000000, 25.000000)">
                <path d="M0,63.624 C0,52.7999459 3.65196348,44.5720282 10.956,38.94 C13.6840136,36.8279894 16.4559859,35.3100046 19.272,34.386 C22.0880141,33.4619954 25.4759802,32.9560004 29.436,32.868 L29.436,37.752 C25.7399815,38.1040018 22.792011,38.675996 20.592,39.468 C18.391989,40.260004 16.192011,41.5359912 13.992,43.296 C11.2639864,45.496011 9.17400726,48.1359846 7.722,51.216 C6.26999274,54.2960154 5.544,57.6839815 5.544,61.38 L5.544,88.044 L0,88.044 L0,63.624 Z M53.5399943,33.792 L53.5399943,67.98 C53.5399943,69.7400088 53.5619941,71.1699945 53.6059943,72.27 C53.6499945,73.3700055 53.7379936,74.315996 53.8699943,75.108 C54.0019949,75.900004 54.1779932,76.6039969 54.3979943,77.22 C54.6179954,77.8360031 54.9479921,78.539996 55.3879943,79.332 C56.3559991,81.1800092 58.1379813,82.6759943 60.7339943,83.82 C63.3300073,84.9640057 66.255978,85.536 69.5119943,85.536 C76.2000277,85.536 80.775982,83.3800216 83.2399943,79.068 C84.0319982,77.5719925 84.559993,76.1420068 84.8239943,74.778 C85.0879956,73.4139932 85.2199943,71.3680136 85.2199943,68.64 L85.2199943,33.792 L90.6319943,33.792 L90.6319943,70.356 C90.6319943,75.9000277 89.4880057,80.167985 87.1999943,83.16 C83.3279749,87.9120238 77.2120361,90.288 68.8519943,90.288 C65.1559758,90.288 61.8560088,89.7380055 58.9519943,88.638 C56.0479798,87.5379945 53.7160031,85.9320106 51.9559943,83.82 C50.4599868,82.0599912 49.4259971,80.1240106 48.8539943,78.012 C48.2819914,75.8999894 47.9959943,72.9960185 47.9959943,69.3 L47.9959943,33.792 L53.5399943,33.792 Z M114.735989,33.792 L120.279989,33.792 L120.279989,42.372 C121.863996,40.2599894 123.315982,38.5220068 124.635989,37.158 C125.955995,35.7939932 127.319982,34.716004 128.727989,33.924 C130.135996,33.131996 131.631981,32.5600018 133.215989,32.208 C134.799996,31.8559982 136.603978,31.68 138.627989,31.68 C143.732014,31.68 147.515976,33.0439864 149.979989,35.772 C150.859993,36.7400048 151.607985,37.8399938 152.223989,39.072 C152.839992,40.3040062 153.631984,42.3279859 154.599989,45.144 L169.119989,88.044 L163.179989,88.044 L151.035989,51.612 C150.067984,48.7079855 149.297991,46.4420081 148.725989,44.814 C148.153986,43.1859919 147.669991,41.9320044 147.273989,41.052 C146.877987,40.1719956 146.481991,39.5560018 146.085989,39.204 C145.689987,38.8519982 145.183992,38.5000018 144.567989,38.148 C143.775985,37.7079978 142.653996,37.3120018 141.201989,36.96 C139.749981,36.6079982 138.407995,36.432 137.175989,36.432 C135.151978,36.432 133.149998,36.9159952 131.169989,37.884 C129.189979,38.8520048 127.385997,40.0839925 125.757989,41.58 C124.12998,43.0760075 122.809994,44.7919903 121.797989,46.728 C120.785983,48.6640097 120.279989,50.5559908 120.279989,52.404 L120.279989,88.044 L114.735989,88.044 L114.735989,33.792 Z M186.227983,33.792 L191.771983,33.792 L191.771983,42.372 C193.355991,40.2599894 194.807976,38.5220068 196.127983,37.158 C197.447989,35.7939932 198.811976,34.716004 200.219983,33.924 C201.62799,33.131996 203.123975,32.5600018 204.707983,32.208 C206.291991,31.8559982 208.095973,31.68 210.119983,31.68 C215.224008,31.68 219.007971,33.0439864 221.471983,35.772 C222.351987,36.7400048 223.09998,37.8399938 223.715983,39.072 C224.331986,40.3040062 225.123978,42.3279859 226.091983,45.144 L240.611983,88.044 L234.671983,88.044 L222.527983,51.612 C221.559978,48.7079855 220.789986,46.4420081 220.217983,44.814 C219.64598,43.1859919 219.161985,41.9320044 218.765983,41.052 C218.369981,40.1719956 217.973985,39.5560018 217.577983,39.204 C217.181981,38.8519982 216.675986,38.5000018 216.059983,38.148 C215.267979,37.7079978 214.14599,37.3120018 212.693983,36.96 C211.241976,36.6079982 209.899989,36.432 208.667983,36.432 C206.643973,36.432 204.641993,36.9159952 202.661983,37.884 C200.681973,38.8520048 198.877991,40.0839925 197.249983,41.58 C195.621975,43.0760075 194.301988,44.7919903 193.289983,46.728 C192.277978,48.6640097 191.771983,50.5559908 191.771983,52.404 L191.771983,88.044 L186.227983,88.044 L186.227983,33.792 Z M258.775977,33.792 L264.451977,33.792 L264.451977,88.044 L258.775977,88.044 L258.775977,33.792 Z M261.811977,6.468 C263.219984,6.468 264.385972,6.95199516 265.309977,7.92 C266.233982,8.88800484 266.695977,10.1199925 266.695977,11.616 C266.695977,13.024007 266.211982,14.1899954 265.243977,15.114 C264.275972,16.0380046 263.087984,16.5 261.679977,16.5 C260.18397,16.5 258.973982,15.9940051 258.049977,14.982 C257.125972,13.9699949 256.663977,12.7160075 256.663977,11.22 C256.663977,9.72399252 257.125972,8.55800418 258.049977,7.722 C258.973982,6.88599582 260.227969,6.468 261.811977,6.468 Z M290.799971,33.792 L296.343971,33.792 L296.343971,42.372 C297.927979,40.2599894 299.379965,38.5220068 300.699971,37.158 C302.019978,35.7939932 303.383964,34.716004 304.791971,33.924 C306.199978,33.131996 307.695963,32.5600018 309.279971,32.208 C310.863979,31.8559982 312.667961,31.68 314.691971,31.68 C319.795997,31.68 323.579959,33.0439864 326.043971,35.772 C326.923976,36.7400048 327.671968,37.8399938 328.287971,39.072 C328.903974,40.3040062 329.695967,42.3279859 330.663971,45.144 L345.183971,88.044 L339.243971,88.044 L327.099971,51.612 C326.131967,48.7079855 325.361974,46.4420081 324.789971,44.814 C324.217969,43.1859919 323.733973,41.9320044 323.337971,41.052 C322.941969,40.1719956 322.545973,39.5560018 322.149971,39.204 C321.753969,38.8519982 321.247974,38.5000018 320.631971,38.148 C319.839967,37.7079978 318.717979,37.3120018 317.265971,36.96 C315.813964,36.6079982 314.471978,36.432 313.239971,36.432 C311.215961,36.432 309.213981,36.9159952 307.233971,37.884 C305.253961,38.8520048 303.44998,40.0839925 301.821971,41.58 C300.193963,43.0760075 298.873976,44.7919903 297.861971,46.728 C296.849966,48.6640097 296.343971,50.5559908 296.343971,52.404 L296.343971,88.044 L290.799971,88.044 L290.799971,33.792 Z M388.031966,36.96 C384.86395,36.96 381.82798,37.5979936 378.923966,38.874 C376.019951,40.1500064 373.489976,41.8439894 371.333966,43.956 C369.177955,46.0680106 367.461972,48.5319859 366.185966,51.348 C364.909959,54.1640141 364.271966,57.1559842 364.271966,60.324 C364.271966,63.7560172 364.88796,66.9239855 366.119966,69.828 C367.351972,72.7320145 369.023955,75.283989 371.135966,77.484 C373.247976,79.684011 375.755951,81.3999938 378.659966,82.632 C381.56398,83.8640062 384.687949,84.48 388.031966,84.48 C391.287982,84.48 394.367951,83.8640062 397.271966,82.632 C400.17598,81.3999938 402.705955,79.684011 404.861966,77.484 C407.017976,75.283989 408.71196,72.7540143 409.943966,69.894 C411.175972,67.0339857 411.791966,63.9320167 411.791966,60.588 C411.791966,57.3319837 411.175972,54.2740143 409.943966,51.414 C408.71196,48.5539857 407.017976,46.0460108 404.861966,43.89 C402.705955,41.7339892 400.17598,40.0400062 397.271966,38.808 C394.367951,37.5759938 391.287982,36.96 388.031966,36.96 Z M365.063966,88.572 C366.559973,91.6520154 367.90196,93.9839921 369.089966,95.568 C370.277972,97.1520079 371.619958,98.6039934 373.115966,99.924 C377.339987,103.444018 382.267938,105.204 387.899966,105.204 C392.82799,105.204 397.315945,103.796014 401.363966,100.98 C405.411986,98.1639859 408.315957,94.4680229 410.075966,89.892 C410.603968,88.3959925 410.977965,86.9000075 411.197966,85.404 C411.417967,83.9079925 411.527966,81.9720119 411.527966,79.596 L411.527966,77.088 C409.239954,81.0480198 406.005987,84.1499888 401.825966,86.394 C397.645945,88.6380112 393.003991,89.76 387.899966,89.76 C383.939946,89.76 380.199983,89.0120075 376.679966,87.516 C373.159948,86.0199925 370.079979,83.9520132 367.439966,81.312 C364.799952,78.6719868 362.731973,75.5920176 361.235966,72.072 C359.739958,68.5519824 358.991966,64.8120198 358.991966,60.852 C358.991966,56.8039798 359.739958,53.0200176 361.235966,49.5 C362.731973,45.9799824 364.799952,42.9000132 367.439966,40.26 C370.079979,37.6199868 373.159948,35.5300077 376.679966,33.99 C380.199983,32.4499923 383.939946,31.68 387.899966,31.68 C392.123987,31.68 396.171946,32.581991 400.043966,34.386 C403.915985,36.190009 407.259952,38.6759842 410.075966,41.844 C414.563988,47.3000273 416.807966,54.0759595 416.807966,62.172 L416.807966,83.292 C416.807966,86.9880185 416.037973,90.5079833 414.497966,93.852 C412.957958,97.1960167 410.867979,100.121987 408.227966,102.63 C405.587952,105.138013 402.529983,107.139993 399.053966,108.636 C395.577948,110.132007 391.947985,110.88 388.163966,110.88 C384.467947,110.88 380.837983,110.198007 377.273966,108.834 C373.709948,107.469993 370.651978,105.556012 368.099966,103.092 C367.219961,102.299996 366.427969,101.486004 365.723966,100.65 C365.019962,99.8139958 364.359969,98.9120048 363.743966,97.944 C363.127963,96.9759952 362.511969,95.8540064 361.895966,94.578 C361.279963,93.3019936 360.619969,91.8280084 359.915966,90.156 L365.063966,88.572 Z M465.19996,39.336 C462.383946,39.336 459.721972,39.8859945 457.21396,40.986 C454.705947,42.0860055 452.527969,43.5599908 450.67996,45.408 C448.831951,47.2560092 447.357965,49.4119877 446.25796,51.876 C445.157954,54.3400123 444.60796,56.9799859 444.60796,59.796 C444.60796,62.5240136 445.135955,65.0759881 446.19196,67.452 C447.247965,69.8280119 448.677951,71.8959912 450.48196,73.656 C452.285969,75.4160088 454.397948,76.8019949 456.81796,77.814 C459.237972,78.8260051 461.811946,79.332 464.53996,79.332 C467.267974,79.332 469.863948,78.8040053 472.32796,77.748 C474.791972,76.6919947 476.947951,75.2400092 478.79596,73.392 C480.643969,71.5439908 482.095955,69.4100121 483.15196,66.99 C484.207965,64.5699879 484.73596,61.9960136 484.73596,59.268 C484.73596,56.6279868 484.207965,54.0980121 483.15196,51.678 C482.095955,49.2579879 480.665969,47.1240092 478.86196,45.276 C477.057951,43.4279908 474.989972,41.9760053 472.65796,40.92 C470.325948,39.8639947 467.839973,39.336 465.19996,39.336 Z M445.39996,39.204 C448.215974,35.8599833 451.119945,33.5060068 454.11196,32.142 C457.103975,30.7779932 460.711939,30.096 464.93596,30.096 C468.98398,30.096 472.811942,30.8659923 476.41996,32.406 C480.027978,33.9460077 483.151947,36.0359868 485.79196,38.676 C488.431973,41.3160132 490.521952,44.3959824 492.06196,47.916 C493.601968,51.4360176 494.37196,55.2199798 494.37196,59.268 C494.37196,63.3160202 493.579968,67.143982 491.99596,70.752 C490.411952,74.360018 488.277973,77.5059866 485.59396,80.19 C482.909947,82.8740134 479.785978,85.0079921 476.22196,86.592 C472.657942,88.1760079 468.85198,88.968 464.80396,88.968 C460.579939,88.968 456.663978,88.1980077 453.05596,86.658 C449.447942,85.1179923 446.323973,82.9620139 443.68396,80.19 C441.043947,77.4179861 438.997967,74.1400189 437.54596,70.356 C436.093953,66.5719811 435.36796,62.4360224 435.36796,57.948 L435.36796,0 L445.39996,0 L445.39996,39.204 Z M553.059954,43.296 C551.123945,41.887993 549.319963,40.8980029 547.647954,40.326 C545.975946,39.7539971 544.039965,39.468 541.839954,39.468 C539.02394,39.468 536.405966,40.0179945 533.985954,41.118 C531.565942,42.2180055 529.431963,43.6919908 527.583954,45.54 C525.735945,47.3880092 524.28396,49.5439877 523.227954,52.008 C522.171949,54.4720123 521.643954,57.1119859 521.643954,59.928 C521.643954,61.8640097 521.885952,63.5799925 522.369954,65.076 C522.853957,66.5720075 523.755948,68.4639886 525.075954,70.752 L553.059954,43.296 Z M530.883954,76.164 C533.259966,77.572007 535.239946,78.5179976 536.823954,79.002 C538.407962,79.4860024 540.211944,79.728 542.235954,79.728 C544.875967,79.728 547.58194,79.0680066 550.353954,77.748 C553.125968,76.4279934 556.623933,74.1400163 560.847954,70.884 L560.319954,83.556 C558.647946,84.6120053 557.085961,85.5139963 555.633954,86.262 C554.181947,87.0100037 552.751961,87.6259976 551.343954,88.11 C549.935947,88.5940024 548.483962,88.9239991 546.987954,89.1 C545.491947,89.2760009 543.907963,89.364 542.235954,89.364 C538.011933,89.364 534.073972,88.5940077 530.421954,87.054 C526.769936,85.5139923 523.601968,83.4240132 520.917954,80.784 C518.233941,78.1439868 516.099962,75.0420178 514.515954,71.478 C512.931946,67.9139822 512.139954,64.0640207 512.139954,59.928 C512.139954,55.7919793 512.931946,51.8980183 514.515954,48.246 C516.099962,44.5939817 518.27794,41.4040136 521.049954,38.676 C523.821968,35.9479864 527.055936,33.7920079 530.751954,32.208 C534.447973,30.6239921 538.407933,29.832 542.631954,29.832 C544.919966,29.832 547.053944,30.029998 549.033954,30.426 C551.013964,30.822002 552.927945,31.5039952 554.775954,32.472 C556.623963,33.4400048 558.471945,34.6939923 560.319954,36.234 C562.167963,37.7740077 564.147944,39.643989 566.259954,41.844 L530.883954,76.164 Z M583.103949,31.68 L587.459949,31.68 L587.459949,18.876 L597.359949,16.104 L597.359949,31.68 L612.275949,31.68 L612.275949,40.788 L597.359949,40.788 L597.359949,67.452 C597.359949,71.9400224 597.931943,75.0639912 599.075949,76.824 C600.219954,78.5840088 602.331933,79.464 605.411949,79.464 C606.291953,79.464 607.215944,79.4200004 608.183949,79.332 C609.151953,79.2439996 610.647938,79.0240018 612.671949,78.672 L612.671949,87.78 C610.823939,88.2200022 609.327954,88.5059993 608.183949,88.638 C607.039943,88.7700007 605.807955,88.836 604.487949,88.836 C593.135892,88.836 587.459949,82.6760616 587.459949,70.356 L587.459949,40.788 L583.103949,40.788 L583.103949,31.68 Z M656.707943,39.336 C653.891929,39.336 651.251955,39.8639947 648.787943,40.92 C646.32393,41.9760053 644.167952,43.4279908 642.319943,45.276 C640.471934,47.1240092 639.019948,49.2579879 637.963943,51.678 C636.907937,54.0980121 636.379943,56.6719864 636.379943,59.4 C636.379943,62.2160141 636.885938,64.8559877 637.897943,67.32 C638.909948,69.7840123 640.295934,71.917991 642.055943,73.722 C643.815952,75.526009 645.883931,76.9339949 648.259943,77.946 C650.635955,78.9580051 653.187929,79.464 655.915943,79.464 C658.907958,79.464 661.63593,78.9800048 664.099943,78.012 C666.563955,77.0439952 668.697934,75.658009 670.501943,73.854 C672.305952,72.049991 673.713938,69.9380121 674.725943,67.518 C675.737948,65.0979879 676.243943,62.4360145 676.243943,59.532 C676.243943,56.6279855 675.737948,53.9440123 674.725943,51.48 C673.713938,49.0159877 672.349951,46.882009 670.633943,45.078 C668.917934,43.273991 666.849955,41.8660051 664.429943,40.854 C662.009931,39.8419949 659.435956,39.336 656.707943,39.336 Z M686.275943,88.044 L681.919943,74.316 C675.759912,84.2600497 667.179998,89.232 656.179943,89.232 C652.043922,89.232 648.193961,88.4840075 644.629943,86.988 C641.065925,85.4919925 637.963956,83.4240132 635.323943,80.784 C632.68393,78.1439868 630.59395,75.0420178 629.053943,71.478 C627.513935,67.9139822 626.743943,64.0640207 626.743943,59.928 C626.743943,55.7919793 627.513935,51.8980183 629.053943,48.246 C630.59395,44.5939817 632.727929,41.4040136 635.455943,38.676 C638.183956,35.9479864 641.351925,33.7920079 644.959943,32.208 C648.567961,30.6239921 652.439922,29.832 656.575943,29.832 C660.799964,29.832 664.825924,30.6899914 668.653943,32.406 C672.481962,34.1220086 675.759929,36.5639842 678.487943,39.732 C679.279947,40.7000048 680.005939,41.6239956 680.665943,42.504 C681.325946,43.3840044 681.94194,44.4179941 682.513943,45.606 C683.085946,46.7940059 683.65794,48.1579923 684.229943,49.698 C684.801946,51.2380077 685.439939,53.0639894 686.143943,55.176 L696.703943,88.044 L686.275943,88.044 Z" id="runningbeta-copy"></path>
            </g>
        </g>
    </g>
</svg>