<?xml version="1.0" encoding="UTF-8"?>
<svg width="950px" height="201px" viewBox="0 0 950 201" version="1.1" xmlns="http://www.w3.org/2000/svg" xmlns:xlink="http://www.w3.org/1999/xlink">
    <!-- Generator: Sketch 42 (36781) - http://www.bohemiancoding.com/sketch -->
    <title>Beta Round Full</title>
    <desc>Created with Sketch.</desc>
    <defs>
        <path d="M100.7,0.3 C45.5857994,0.3 0.7,45.1857994 0.7,100.3 C0.7,155.414201 45.5857994,200.3 100.7,200.3 C155.814201,200.3 200.7,155.414201 200.7,100.3 C200.7,45.1857994 155.814201,0.3 100.7,0.3 Z" id="path-1"></path>
        <path d="M100.7,5.3 C48.3415094,5.3 5.7,47.9415094 5.7,100.3 C5.7,152.658491 48.3415094,195.3 100.7,195.3 C153.058491,195.3 195.7,152.658491 195.7,100.3 C195.7,47.9415094 153.058491,5.3 100.7,5.3 Z" id="path-3"></path>
    </defs>
    <g id="Page-1" stroke="none" stroke-width="1" fill="none" fill-rule="evenodd">
        <g id="Beta-Round-Full">
            <g id="Group">
                <g>
                    <mask id="mask-2" fill="white">
                        <use xlink:href="#path-1"></use>
                    </mask>
                    <use id="Shape" fill="#014E72" fill-rule="nonzero" xlink:href="#path-1"></use>
                    <mask id="mask-4" fill="white">
                        <use xlink:href="#path-3"></use>
                    </mask>
                    <use id="Shape" fill="#FFFFFF" fill-rule="nonzero" xlink:href="#path-3"></use>
                    <g mask="url(#mask-4)">
                        <g transform="translate(-64.000000, 26.000000)">
                            <g transform="translate(0.736196, 0.000000)">
                                <path d="M155.948466,0 L136.899387,24.097561 L133.597546,48.702439 L125.215951,48.702439 L121.406135,57.5804878 L109.214724,62.1463415 L104.642945,89.5414634 L96.2613497,98.4195122 L96.2613497,109.073171 C96.2613497,109.073171 65.5288344,136.97561 63.7509202,136.97561 C61.9730061,136.97561 27.4306748,157.014634 27.4306748,157.014634 L0,206.478049 L333.993865,206.478049 L303.769325,161.326829 L295.38773,136.721951 L288.022086,140.526829 L271.258896,135.453659 L257.289571,115.921951 L245.606135,109.834146 L238.240491,103.239024 L241.034356,90.302439 L216.397546,40.0780488 L203.444172,30.6926829 L177.791411,7.35609756 L155.948466,0 Z" id="Shape" fill="#014E72" fill-rule="nonzero"></path>
                                <polygon id="Shape" fill="#FFFFFF" fill-rule="nonzero" points="185.411043 50.2243902 175.505521 41.8536585 168.139877 16.2341463 159.504294 4.8195122 141.725153 27.1414634 136.391411 65.9512195 130.041718 51.7463415 126.231902 60.6243902 113.786503 65.1902439 107.690798 103.239024 101.087117 101.463415 101.087117 112.117073 68.5766871 140.019512 41.9079755 154.731707 78.2282209 149.404878 108.960736 132.156098 106.166871 144.585366 125.723926 139.512195 146.804908 116.682927 148.582822 132.156098 160.774233 121.756098 160.266258 103.239024 170.679755 60.8780488"></polygon>
                            </g>
                        </g>
                    </g>
                </g>
                <path d="M238.136031,105.58 C238.136031,94.7559459 241.787995,86.5280282 249.092031,80.896 C251.820045,78.7839894 254.592017,77.2660046 257.408031,76.342 C260.224046,75.4179954 263.612012,74.9120004 267.572031,74.824 L267.572031,79.708 C263.876013,80.0600018 260.928042,80.631996 258.728031,81.424 C256.52802,82.216004 254.328042,83.4919912 252.128031,85.252 C249.400018,87.452011 247.310039,90.0919846 245.858031,93.172 C244.406024,96.2520154 243.680031,99.6399815 243.680031,103.336 L243.680031,130 L238.136031,130 L238.136031,105.58 Z M291.676026,75.748 L291.676026,109.936 C291.676026,111.696009 291.698026,113.125995 291.742026,114.226 C291.786026,115.326005 291.874025,116.271996 292.006026,117.064 C292.138026,117.856004 292.314025,118.559997 292.534026,119.176 C292.754027,119.792003 293.084024,120.495996 293.524026,121.288 C294.492031,123.136009 296.274013,124.631994 298.870026,125.776 C301.466039,126.920006 304.392009,127.492 307.648026,127.492 C314.336059,127.492 318.912013,125.336022 321.376026,121.024 C322.16803,119.527993 322.696024,118.098007 322.960026,116.734 C323.224027,115.369993 323.356026,113.324014 323.356026,110.596 L323.356026,75.748 L328.768026,75.748 L328.768026,112.312 C328.768026,117.856028 327.624037,122.123985 325.336026,125.116 C321.464006,129.868024 315.348068,132.244 306.988026,132.244 C303.292007,132.244 299.99204,131.694006 297.088026,130.594 C294.184011,129.493994 291.852035,127.888011 290.092026,125.776 C288.596018,124.015991 287.562029,122.080011 286.990026,119.968 C286.418023,117.855989 286.132026,114.952018 286.132026,111.256 L286.132026,75.748 L291.676026,75.748 Z M352.87202,75.748 L358.41602,75.748 L358.41602,84.328 C360.000028,82.2159894 361.452013,80.4780068 362.77202,79.114 C364.092027,77.7499932 365.456013,76.672004 366.86402,75.88 C368.272027,75.087996 369.768012,74.5160018 371.35202,74.164 C372.936028,73.8119982 374.74001,73.636 376.76402,73.636 C381.868046,73.636 385.652008,74.9999864 388.11602,77.728 C388.996024,78.6960048 389.744017,79.7959938 390.36002,81.028 C390.976023,82.2600062 391.768015,84.2839859 392.73602,87.1 L407.25602,130 L401.31602,130 L389.17202,93.568 C388.204015,90.6639855 387.434023,88.3980081 386.86202,86.77 C386.290017,85.1419919 385.806022,83.8880044 385.41002,83.008 C385.014018,82.1279956 384.618022,81.5120018 384.22202,81.16 C383.826018,80.8079982 383.320023,80.4560018 382.70402,80.104 C381.912016,79.6639978 380.790027,79.2680018 379.33802,78.916 C377.886013,78.5639982 376.544026,78.388 375.31202,78.388 C373.28801,78.388 371.28603,78.8719952 369.30602,79.84 C367.32601,80.8080048 365.522028,82.0399925 363.89402,83.536 C362.266012,85.0320075 360.946025,86.7479903 359.93402,88.684 C358.922015,90.6200097 358.41602,92.5119908 358.41602,94.36 L358.41602,130 L352.87202,130 L352.87202,75.748 Z M424.364014,75.748 L429.908014,75.748 L429.908014,84.328 C431.492022,82.2159894 432.944008,80.4780068 434.264014,79.114 C435.584021,77.7499932 436.948007,76.672004 438.356014,75.88 C439.764021,75.087996 441.260006,74.5160018 442.844014,74.164 C444.428022,73.8119982 446.232004,73.636 448.256014,73.636 C453.36004,73.636 457.144002,74.9999864 459.608014,77.728 C460.488019,78.6960048 461.236011,79.7959938 461.852014,81.028 C462.468017,82.2600062 463.260009,84.2839859 464.228014,87.1 L478.748014,130 L472.808014,130 L460.664014,93.568 C459.696009,90.6639855 458.926017,88.3980081 458.354014,86.77 C457.782011,85.1419919 457.298016,83.8880044 456.902014,83.008 C456.506012,82.1279956 456.110016,81.5120018 455.714014,81.16 C455.318012,80.8079982 454.812017,80.4560018 454.196014,80.104 C453.40401,79.6639978 452.282022,79.2680018 450.830014,78.916 C449.378007,78.5639982 448.03602,78.388 446.804014,78.388 C444.780004,78.388 442.778024,78.8719952 440.798014,79.84 C438.818004,80.8080048 437.014022,82.0399925 435.386014,83.536 C433.758006,85.0320075 432.438019,86.7479903 431.426014,88.684 C430.414009,90.6200097 429.908014,92.5119908 429.908014,94.36 L429.908014,130 L424.364014,130 L424.364014,75.748 Z M496.912009,75.748 L502.588009,75.748 L502.588009,130 L496.912009,130 L496.912009,75.748 Z M499.948009,48.424 C501.356016,48.424 502.522004,48.9079952 503.446009,49.876 C504.370013,50.8440048 504.832009,52.0759925 504.832009,53.572 C504.832009,54.980007 504.348013,56.1459954 503.380009,57.07 C502.412004,57.9940046 501.224016,58.456 499.816009,58.456 C498.320001,58.456 497.110013,57.9500051 496.186009,56.938 C495.262004,55.9259949 494.800009,54.6720075 494.800009,53.176 C494.800009,51.6799925 495.262004,50.5140042 496.186009,49.678 C497.110013,48.8419958 498.364001,48.424 499.948009,48.424 Z M528.936003,75.748 L534.480003,75.748 L534.480003,84.328 C536.064011,82.2159894 537.515996,80.4780068 538.836003,79.114 C540.156009,77.7499932 541.519996,76.672004 542.928003,75.88 C544.33601,75.087996 545.831995,74.5160018 547.416003,74.164 C549.000011,73.8119982 550.803993,73.636 552.828003,73.636 C557.932028,73.636 561.715991,74.9999864 564.180003,77.728 C565.060007,78.6960048 565.808,79.7959938 566.424003,81.028 C567.040006,82.2600062 567.831998,84.2839859 568.800003,87.1 L583.320003,130 L577.380003,130 L565.236003,93.568 C564.267998,90.6639855 563.498006,88.3980081 562.926003,86.77 C562.354,85.1419919 561.870005,83.8880044 561.474003,83.008 C561.078001,82.1279956 560.682005,81.5120018 560.286003,81.16 C559.890001,80.8079982 559.384006,80.4560018 558.768003,80.104 C557.975999,79.6639978 556.85401,79.2680018 555.402003,78.916 C553.949996,78.5639982 552.608009,78.388 551.376003,78.388 C549.351993,78.388 547.350013,78.8719952 545.370003,79.84 C543.389993,80.8080048 541.586011,82.0399925 539.958003,83.536 C538.329995,85.0320075 537.010008,86.7479903 535.998003,88.684 C534.985998,90.6200097 534.480003,92.5119908 534.480003,94.36 L534.480003,130 L528.936003,130 L528.936003,75.748 Z M626.167997,78.916 C622.999981,78.916 619.964012,79.5539936 617.059997,80.83 C614.155983,82.1060064 611.626008,83.7999894 609.469997,85.912 C607.313986,88.0240106 605.598004,90.4879859 604.321997,93.304 C603.045991,96.1200141 602.407997,99.1119842 602.407997,102.28 C602.407997,105.712017 603.023991,108.879985 604.255997,111.784 C605.488003,114.688015 607.159987,117.239989 609.271997,119.44 C611.384008,121.640011 613.891983,123.355994 616.795997,124.588 C619.700012,125.820006 622.82398,126.436 626.167997,126.436 C629.424013,126.436 632.503983,125.820006 635.407997,124.588 C638.312012,123.355994 640.841986,121.640011 642.997997,119.44 C645.154008,117.239989 646.847991,114.710014 648.079997,111.85 C649.312003,108.989986 649.927997,105.888017 649.927997,102.544 C649.927997,99.2879837 649.312003,96.2300143 648.079997,93.37 C646.847991,90.5099857 645.154008,88.0020108 642.997997,85.846 C640.841986,83.6899892 638.312012,81.9960062 635.407997,80.764 C632.503983,79.5319938 629.424013,78.916 626.167997,78.916 Z M603.199997,130.528 C604.696005,133.608015 606.037991,135.939992 607.225997,137.524 C608.414003,139.108008 609.75599,140.559993 611.251997,141.88 C615.476018,145.400018 620.403969,147.16 626.035997,147.16 C630.964022,147.16 635.451977,145.752014 639.499997,142.936 C643.548017,140.119986 646.451988,136.424023 648.211997,131.848 C648.74,130.351993 649.113996,128.856007 649.333997,127.36 C649.553998,125.863993 649.663997,123.928012 649.663997,121.552 L649.663997,119.044 C647.375986,123.00402 644.142018,126.105989 639.961997,128.35 C635.781976,130.594011 631.140023,131.716 626.035997,131.716 C622.075977,131.716 618.336015,130.968007 614.815997,129.472 C611.29598,127.975993 608.21601,125.908013 605.575997,123.268 C602.935984,120.627987 600.868005,117.548018 599.371997,114.028 C597.87599,110.507982 597.127997,106.76802 597.127997,102.808 C597.127997,98.7599798 597.87599,94.9760176 599.371997,91.456 C600.868005,87.9359824 602.935984,84.8560132 605.575997,82.216 C608.21601,79.5759868 611.29598,77.4860077 614.815997,75.946 C618.336015,74.4059923 622.075977,73.636 626.035997,73.636 C630.260018,73.636 634.307978,74.537991 638.179997,76.342 C642.052016,78.146009 645.395983,80.6319842 648.211997,83.8 C652.70002,89.2560273 654.943997,96.0319595 654.943997,104.128 L654.943997,125.248 C654.943997,128.944018 654.174005,132.463983 652.633997,135.808 C651.093989,139.152017 649.00401,142.077987 646.363997,144.586 C643.723984,147.094013 640.666015,149.095993 637.189997,150.592 C633.71398,152.088007 630.084016,152.836 626.299997,152.836 C622.603979,152.836 618.974015,152.154007 615.409997,150.79 C611.845979,149.425993 608.78801,147.512012 606.235997,145.048 C605.355993,144.255996 604.564001,143.442004 603.859997,142.606 C603.155994,141.769996 602.496,140.868005 601.879997,139.9 C601.263994,138.931995 600.648,137.810006 600.031997,136.534 C599.415994,135.257994 598.756001,133.784008 598.051997,132.112 L603.199997,130.528 Z M703.335991,81.292 C700.519977,81.292 697.858004,81.8419945 695.349991,82.942 C692.841979,84.0420055 690.664001,85.5159908 688.815991,87.364 C686.967982,89.2120092 685.493997,91.3679877 684.393991,93.832 C683.293986,96.2960123 682.743991,98.9359859 682.743991,101.752 C682.743991,104.480014 683.271986,107.031988 684.327991,109.408 C685.383997,111.784012 686.813982,113.851991 688.617991,115.612 C690.422,117.372009 692.533979,118.757995 694.953991,119.77 C697.374004,120.782005 699.947978,121.288 702.675991,121.288 C705.404005,121.288 707.999979,120.760005 710.463991,119.704 C712.928004,118.647995 715.083982,117.196009 716.931991,115.348 C718.780001,113.499991 720.231986,111.366012 721.287991,108.946 C722.343997,106.525988 722.871991,103.952014 722.871991,101.224 C722.871991,98.5839868 722.343997,96.0540121 721.287991,93.634 C720.231986,91.2139879 718.802,89.0800092 716.997991,87.232 C715.193982,85.3839908 713.126003,83.9320053 710.793991,82.876 C708.46198,81.8199947 705.976005,81.292 703.335991,81.292 Z M683.535991,81.16 C686.352005,77.8159833 689.255976,75.4620068 692.247991,74.098 C695.240006,72.7339932 698.84797,72.052 703.071991,72.052 C707.120012,72.052 710.947973,72.8219923 714.555991,74.362 C718.164009,75.9020077 721.287978,77.9919868 723.927991,80.632 C726.568005,83.2720132 728.657984,86.3519824 730.197991,89.872 C731.737999,93.3920176 732.507991,97.1759798 732.507991,101.224 C732.507991,105.27202 731.715999,109.099982 730.131991,112.708 C728.547983,116.316018 726.414005,119.461987 723.729991,122.146 C721.045978,124.830013 717.922009,126.963992 714.357991,128.548 C710.793974,130.132008 706.988012,130.924 702.939991,130.924 C698.71597,130.924 694.800009,130.154008 691.191991,128.614 C687.583973,127.073992 684.460005,124.918014 681.819991,122.146 C679.179978,119.373986 677.133999,116.096019 675.681991,112.312 C674.229984,108.527981 673.503991,104.392022 673.503991,99.904 L673.503991,41.956 L683.535991,41.956 L683.535991,81.16 Z M791.195986,85.252 C789.259976,83.843993 787.455994,82.8540029 785.783986,82.282 C784.111977,81.7099971 782.175997,81.424 779.975986,81.424 C777.159972,81.424 774.541998,81.9739945 772.121986,83.074 C769.701974,84.1740055 767.567995,85.6479908 765.719986,87.496 C763.871976,89.3440092 762.419991,91.4999877 761.363986,93.964 C760.30798,96.4280123 759.779986,99.0679859 759.779986,101.884 C759.779986,103.82001 760.021983,105.535993 760.505986,107.032 C760.989988,108.528007 761.891979,110.419989 763.211986,112.708 L791.195986,85.252 Z M769.019986,118.12 C771.395998,119.528007 773.375978,120.473998 774.959986,120.958 C776.543994,121.442002 778.347976,121.684 780.371986,121.684 C783.011999,121.684 785.717972,121.024007 788.489986,119.704 C791.262,118.383993 794.759965,116.096016 798.983986,112.84 L798.455986,125.512 C796.783977,126.568005 795.221993,127.469996 793.769986,128.218 C792.317978,128.966004 790.887993,129.581998 789.479986,130.066 C788.071979,130.550002 786.619993,130.879999 785.123986,131.056 C783.627978,131.232001 782.043994,131.32 780.371986,131.32 C776.147965,131.32 772.210004,130.550008 768.557986,129.01 C764.905967,127.469992 761.737999,125.380013 759.053986,122.74 C756.369972,120.099987 754.235994,116.998018 752.651986,113.434 C751.067978,109.869982 750.275986,106.020021 750.275986,101.884 C750.275986,97.7479793 751.067978,93.8540183 752.651986,90.202 C754.235994,86.5499817 756.413972,83.3600136 759.185986,80.632 C761.958,77.9039864 765.191967,75.7480079 768.887986,74.164 C772.584004,72.5799921 776.543965,71.788 780.767986,71.788 C783.055997,71.788 785.189976,71.985998 787.169986,72.382 C789.149996,72.778002 791.063976,73.4599952 792.911986,74.428 C794.759995,75.3960048 796.607976,76.6499923 798.455986,78.19 C800.303995,79.7300077 802.283975,81.599989 804.395986,83.8 L769.019986,118.12 Z M821.23998,73.636 L825.59598,73.636 L825.59598,60.832 L835.49598,58.06 L835.49598,73.636 L850.41198,73.636 L850.41198,82.744 L835.49598,82.744 L835.49598,109.408 C835.49598,113.896022 836.067974,117.019991 837.21198,118.78 C838.355986,120.540009 840.467965,121.42 843.54798,121.42 C844.427984,121.42 845.351975,121.376 846.31998,121.288 C847.287985,121.2 848.78397,120.980002 850.80798,120.628 L850.80798,129.736 C848.959971,130.176002 847.463986,130.461999 846.31998,130.594 C845.175974,130.726001 843.943987,130.792 842.62398,130.792 C831.271923,130.792 825.59598,124.632062 825.59598,112.312 L825.59598,82.744 L821.23998,82.744 L821.23998,73.636 Z M894.843974,81.292 C892.02796,81.292 889.387987,81.8199947 886.923974,82.876 C884.459962,83.9320053 882.303983,85.3839908 880.455974,87.232 C878.607965,89.0800092 877.15598,91.2139879 876.099974,93.634 C875.043969,96.0540121 874.515974,98.6279864 874.515974,101.356 C874.515974,104.172014 875.021969,106.811988 876.033974,109.276 C877.045979,111.740012 878.431965,113.873991 880.191974,115.678 C881.951983,117.482009 884.019962,118.889995 886.395974,119.902 C888.771986,120.914005 891.323961,121.42 894.051974,121.42 C897.043989,121.42 899.771962,120.936005 902.235974,119.968 C904.699987,118.999995 906.833965,117.614009 908.637974,115.81 C910.441983,114.005991 911.849969,111.894012 912.861974,109.474 C913.873979,107.053988 914.379974,104.392015 914.379974,101.488 C914.379974,98.5839855 913.873979,95.9000123 912.861974,93.436 C911.849969,90.9719877 910.485983,88.838009 908.769974,87.034 C907.053966,85.229991 904.985986,83.8220051 902.565974,82.81 C900.145962,81.7979949 897.571988,81.292 894.843974,81.292 Z M924.411974,130 L920.055974,116.272 C913.895943,126.21605 905.316029,131.188 894.315974,131.188 C890.179954,131.188 886.329992,130.440007 882.765974,128.944 C879.201956,127.447993 876.099987,125.380013 873.459974,122.74 C870.819961,120.099987 868.729982,116.998018 867.189974,113.434 C865.649967,109.869982 864.879974,106.020021 864.879974,101.884 C864.879974,97.7479793 865.649967,93.8540183 867.189974,90.202 C868.729982,86.5499817 870.863961,83.3600136 873.591974,80.632 C876.319988,77.9039864 879.487956,75.7480079 883.095974,74.164 C886.703992,72.5799921 890.575954,71.788 894.711974,71.788 C898.935995,71.788 902.961955,72.6459914 906.789974,74.362 C910.617993,76.0780086 913.895961,78.5199842 916.623974,81.688 C917.415978,82.6560048 918.141971,83.5799956 918.801974,84.46 C919.461978,85.3400044 920.077971,86.3739941 920.649974,87.562 C921.221977,88.7500059 921.793971,90.1139923 922.365974,91.654 C922.937977,93.1940077 923.575971,95.0199894 924.279974,97.132 L934.839974,130 L924.411974,130 Z" id="runningbeta-copy" fill="#014E72"></path>
            </g>
        </g>
    </g>
</svg>