<?xml version="1.0" encoding="UTF-8"?>
<svg width="196px" height="122px" viewBox="0 0 196 122" version="1.1" xmlns="http://www.w3.org/2000/svg" xmlns:xlink="http://www.w3.org/1999/xlink">
    <g id="Page-1" stroke="none" stroke-width="1" fill="none" fill-rule="evenodd">
        <g id="Beta-Light">
            <g id="Group">
                <g transform="translate(17.000000, 0.000000)" id="Shape" fill-rule="nonzero">
                    <g transform="translate(31.000000, 0.000000)">
                        <path d="M61.4,0 L53.9,9.5 L52.6,19.2 L49.3,19.2 L47.8,22.7 L43,24.5 L41.2,35.3 L37.9,38.8 L37.9,43 C37.9,43 25.8,54 25.1,54 C24.4,54 10.8,61.9 10.8,61.9 L0,81.4 L131.5,81.4 L119.6,63.6 L116.3,53.9 L113.4,55.4 L106.8,53.4 L101.3,45.7 L96.7,43.3 L93.8,40.7 L94.9,35.6 L85.2,15.8 L80.1,12.1 L70,2.9 L61.4,0 Z" fill="#ffffff"></path>
                        <polygon fill="#3c3d41" points="73 19.8 69.1 16.5 66.2 6.4 62.8 1.9 55.8 10.7 53.7 26 51.2 20.4 49.7 23.9 44.8 25.7 42.4 40.7 39.8 40 39.8 44.2 27 55.2 16.5 61 30.8 58.9 42.9 52.1 41.8 57 49.5 55 57.8 46 58.5 52.1 63.3 48 63.1 40.7 67.2 24"></polygon>
                    </g>
                    <g transform="translate(0.000000, 43.000000)">
                        <polygon fill="#ffffff" points="0.1 38.4 14.5 17.8 18.3 16.3 22.2 11.3 29.7 9.2 41.6 0.2 48.9 3.8 52.4 6.8 65.5 12.3 77.8 38.4"></polygon>
                        <polygon fill="#3c3d41" points="41.7 3.2 29.9 12.1 23.4 13.5 19.2 21.6 19.2 18 15.9 19.3 11.1 27 18.2 26 26.4 21.9 27.8 24.2 36.8 21.2 37.9 12.3 43.6 7.1 41.3 6.9"></polygon>
                    </g>
                </g>
                <polygon id="Shape" fill="#ffffff" fill-rule="nonzero" points="40.2 103.2 41.1 103.2 40.7 101.3"></polygon>
                <polygon id="Shape" fill="#ffffff" fill-rule="nonzero" points="195.9 84.8 0.7 84.8 0.7 85.8 0.7 86.8 195.9 86.8 195.9 85.8"></polygon>
                <path d="M10.737,105.895 C10.737,103.188986 11.6499909,101.132007 13.476,99.724 C14.1580034,99.1959974 14.8509965,98.8165012 15.555,98.5855 C16.2590035,98.3544988 17.105995,98.2280001 18.096,98.206 L18.096,99.427 C17.1719954,99.5150004 16.4350027,99.657999 15.885,99.856 C15.3349972,100.054001 14.7850027,100.372998 14.235,100.813 C13.5529966,101.363003 13.0305018,102.022996 12.6675,102.793 C12.3044982,103.563004 12.123,104.409995 12.123,105.334 L12.123,112 L10.737,112 L10.737,105.895 Z M24.122,98.437 L24.122,106.984 C24.122,107.424002 24.1274999,107.781499 24.1385,108.0565 C24.1495001,108.331501 24.1714998,108.567999 24.2045,108.766 C24.2375002,108.964001 24.2814997,109.139999 24.3365,109.294 C24.3915003,109.448001 24.4739994,109.623999 24.584,109.822 C24.8260012,110.284002 25.2714968,110.657999 25.9205,110.944 C26.5695032,111.230001 27.3009959,111.373 28.115,111.373 C29.7870084,111.373 30.9309969,110.834005 31.547,109.756 C31.745001,109.381998 31.8769997,109.024502 31.943,108.6835 C32.0090003,108.342498 32.042,107.831003 32.042,107.149 L32.042,98.437 L33.395,98.437 L33.395,107.578 C33.395,108.964007 33.1090029,110.030996 32.537,110.779 C31.5689952,111.967006 30.0400104,112.561 27.95,112.561 C27.0259954,112.561 26.2010036,112.423501 25.475,112.1485 C24.7489964,111.873499 24.1660022,111.472003 23.726,110.944 C23.3519981,110.503998 23.0935007,110.020003 22.9505,109.492 C22.8074993,108.963997 22.736,108.238005 22.736,107.314 L22.736,98.437 L24.122,98.437 Z M39.421,98.437 L40.807,98.437 L40.807,100.582 C41.203002,100.053997 41.5659983,99.6195017 41.896,99.2785 C42.2260017,98.9374983 42.5669982,98.668001 42.919,98.47 C43.2710018,98.271999 43.644998,98.1290004 44.041,98.041 C44.437002,97.9529996 44.8879975,97.909 45.394,97.909 C46.6700064,97.909 47.6159969,98.2499966 48.232,98.932 C48.4520011,99.1740012 48.6389992,99.4489985 48.793,99.757 C48.9470008,100.065002 49.1449988,100.570996 49.387,101.275 L53.017,112 L51.532,112 L48.496,102.892 C48.2539988,102.165996 48.0615007,101.599502 47.9185,101.1925 C47.7754993,100.785498 47.6545005,100.472001 47.5555,100.252 C47.4564995,100.031999 47.3575005,99.8780004 47.2585,99.79 C47.1594995,99.7019996 47.0330008,99.6140004 46.879,99.526 C46.680999,99.4159995 46.4005018,99.3170004 46.0375,99.229 C45.6744982,99.1409996 45.3390015,99.097 45.031,99.097 C44.5249975,99.097 44.0245025,99.2179988 43.5295,99.46 C43.0344975,99.7020012 42.583502,100.009998 42.1765,100.384 C41.769498,100.758002 41.4395013,101.186998 41.1865,101.671 C40.9334987,102.155002 40.807,102.627998 40.807,103.09 L40.807,112 L39.421,112 L39.421,98.437 Z M57.294,98.437 L58.68,98.437 L58.68,100.582 C59.076002,100.053997 59.4389983,99.6195017 59.769,99.2785 C60.0990016,98.9374983 60.4399982,98.668001 60.792,98.47 C61.1440018,98.271999 61.517998,98.1290004 61.914,98.041 C62.310002,97.9529996 62.7609975,97.909 63.267,97.909 C64.5430064,97.909 65.4889969,98.2499966 66.105,98.932 C66.3250011,99.1740012 66.5119992,99.4489985 66.666,99.757 C66.8200008,100.065002 67.0179988,100.570996 67.26,101.275 L70.89,112 L69.405,112 L66.369,102.892 C66.1269988,102.165996 65.9345007,101.599502 65.7915,101.1925 C65.6484993,100.785498 65.5275005,100.472001 65.4285,100.252 C65.3294995,100.031999 65.2305005,99.8780004 65.1315,99.79 C65.0324995,99.7019996 64.9060008,99.6140004 64.752,99.526 C64.553999,99.4159995 64.2735018,99.3170004 63.9105,99.229 C63.5474982,99.1409996 63.2120015,99.097 62.904,99.097 C62.3979975,99.097 61.8975025,99.2179988 61.4025,99.46 C60.9074975,99.7020012 60.456502,100.009998 60.0495,100.384 C59.642498,100.758002 59.3125013,101.186998 59.0595,101.671 C58.8064987,102.155002 58.68,102.627998 58.68,103.09 L58.68,112 L57.294,112 L57.294,98.437 Z M75.431,98.437 L76.85,98.437 L76.85,112 L75.431,112 L75.431,98.437 Z M76.19,91.606 C76.5420018,91.606 76.8334988,91.7269988 77.0645,91.969 C77.2955012,92.2110012 77.411,92.5189981 77.411,92.893 C77.411,93.2450018 77.2900012,93.5364988 77.048,93.7675 C76.8059988,93.9985012 76.5090018,94.114 76.157,94.114 C75.7829981,94.114 75.4805012,93.9875013 75.2495,93.7345 C75.0184988,93.4814987 74.903,93.1680019 74.903,92.794 C74.903,92.4199981 75.0184988,92.128501 75.2495,91.9195 C75.4805012,91.710499 75.793998,91.606 76.19,91.606 Z M83.437,98.437 L84.823,98.437 L84.823,100.582 C85.219002,100.053997 85.5819984,99.6195017 85.912,99.2785 C86.2420016,98.9374983 86.5829982,98.668001 86.935,98.47 C87.2870018,98.271999 87.660998,98.1290004 88.057,98.041 C88.453002,97.9529996 88.9039975,97.909 89.41,97.909 C90.6860064,97.909 91.6319969,98.2499966 92.248,98.932 C92.4680011,99.1740012 92.6549992,99.4489985 92.809,99.757 C92.9630008,100.065002 93.1609988,100.570996 93.403,101.275 L97.033,112 L95.548,112 L92.512,102.892 C92.2699988,102.165996 92.0775007,101.599502 91.9345,101.1925 C91.7914993,100.785498 91.6705005,100.472001 91.5715,100.252 C91.4724995,100.031999 91.3735005,99.8780004 91.2745,99.79 C91.1754995,99.7019996 91.0490008,99.6140004 90.895,99.526 C90.696999,99.4159995 90.4165018,99.3170004 90.0535,99.229 C89.6904982,99.1409996 89.3550015,99.097 89.047,99.097 C88.5409975,99.097 88.0405025,99.2179988 87.5455,99.46 C87.0504975,99.7020012 86.599502,100.009998 86.1925,100.384 C85.785498,100.758002 85.4555013,101.186998 85.2025,101.671 C84.9494987,102.155002 84.823,102.627998 84.823,103.09 L84.823,112 L83.437,112 L83.437,98.437 Z M107.745,99.229 C106.952996,99.229 106.194004,99.3884984 105.468,99.7075 C104.741996,100.026502 104.109503,100.449997 103.5705,100.978 C103.031497,101.506003 102.602502,102.121996 102.2835,102.826 C101.964498,103.530004 101.805,104.277996 101.805,105.07 C101.805,105.928004 101.958998,106.719996 102.267,107.446 C102.575002,108.172004 102.992997,108.809997 103.521,109.36 C104.049003,109.910003 104.675996,110.338998 105.402,110.647 C106.128004,110.955002 106.908996,111.109 107.745,111.109 C108.559004,111.109 109.328996,110.955002 110.055,110.647 C110.781004,110.338998 111.413497,109.910003 111.9525,109.36 C112.491503,108.809997 112.914998,108.177504 113.223,107.4625 C113.531002,106.747496 113.685,105.972004 113.685,105.136 C113.685,104.321996 113.531002,103.557504 113.223,102.8425 C112.914998,102.127496 112.491503,101.500503 111.9525,100.9615 C111.413497,100.422497 110.781004,99.9990015 110.055,99.691 C109.328996,99.3829985 108.559004,99.229 107.745,99.229 Z M102.003,112.132 C102.377002,112.902004 102.712499,113.484998 103.0095,113.881 C103.306501,114.277002 103.641998,114.639998 104.016,114.97 C105.072005,115.850004 106.303993,116.29 107.712,116.29 C108.944006,116.29 110.065995,115.938004 111.078,115.234 C112.090005,114.529996 112.815998,113.606006 113.256,112.462 C113.388001,112.087998 113.4815,111.714002 113.5365,111.34 C113.5915,110.965998 113.619,110.482003 113.619,109.888 L113.619,109.261 C113.046997,110.251005 112.238505,111.026497 111.1935,111.5875 C110.148495,112.148503 108.988006,112.429 107.712,112.429 C106.721995,112.429 105.787004,112.242002 104.907,111.868 C104.026996,111.493998 103.257003,110.977003 102.597,110.317 C101.936997,109.656997 101.420002,108.887004 101.046,108.007 C100.671998,107.126996 100.485,106.192005 100.485,105.202 C100.485,104.189995 100.671998,103.244004 101.046,102.364 C101.420002,101.483996 101.936997,100.714003 102.597,100.054 C103.257003,99.3939967 104.026996,98.8715019 104.907,98.4865 C105.787004,98.1014981 106.721995,97.909 107.712,97.909 C108.768005,97.909 109.779995,98.1344977 110.748,98.5855 C111.716005,99.0365023 112.551996,99.657996 113.256,100.45 C114.378006,101.814007 114.939,103.50799 114.939,105.532 L114.939,110.812 C114.939,111.736005 114.746502,112.615996 114.3615,113.452 C113.976498,114.288004 113.454003,115.019497 112.794,115.6465 C112.133997,116.273503 111.369504,116.773998 110.5005,117.148 C109.631496,117.522002 108.724005,117.709 107.778,117.709 C106.853995,117.709 105.946504,117.538502 105.0555,117.1975 C104.164496,116.856498 103.400003,116.378003 102.762,115.762 C102.541999,115.563999 102.344001,115.360501 102.168,115.1515 C101.991999,114.942499 101.827001,114.717001 101.673,114.475 C101.518999,114.232999 101.365001,113.952502 101.211,113.6335 C101.056999,113.314498 100.892001,112.946002 100.716,112.528 L102.003,112.132 Z M127.037,99.823 C126.332996,99.823 125.667503,99.9604986 125.0405,100.2355 C124.413497,100.510501 123.869002,100.878998 123.407,101.341 C122.944998,101.803002 122.576501,102.341997 122.3015,102.958 C122.026499,103.574003 121.889,104.233996 121.889,104.938 C121.889,105.620003 122.020999,106.257997 122.285,106.852 C122.549001,107.446003 122.906498,107.962998 123.3575,108.403 C123.808502,108.843002 124.336497,109.189499 124.9415,109.4425 C125.546503,109.695501 126.189997,109.822 126.872,109.822 C127.554003,109.822 128.202997,109.690001 128.819,109.426 C129.435003,109.161999 129.973998,108.799002 130.436,108.337 C130.898002,107.874998 131.260999,107.341503 131.525,106.7365 C131.789001,106.131497 131.921,105.488003 131.921,104.806 C131.921,104.145997 131.789001,103.513503 131.525,102.9085 C131.260999,102.303497 130.903502,101.770002 130.4525,101.308 C130.001498,100.845998 129.484503,100.483001 128.9015,100.219 C128.318497,99.9549987 127.697003,99.823 127.037,99.823 Z M122.087,99.79 C122.791004,98.9539958 123.516996,98.3655017 124.265,98.0245 C125.013004,97.6834983 125.914995,97.513 126.971,97.513 C127.983005,97.513 128.939995,97.7054981 129.842,98.0905 C130.744005,98.4755019 131.524997,98.9979967 132.185,99.658 C132.845003,100.318003 133.367498,101.087996 133.7525,101.968 C134.137502,102.848004 134.33,103.793995 134.33,104.806 C134.33,105.818005 134.132002,106.774995 133.736,107.677 C133.339998,108.579005 132.806503,109.365497 132.1355,110.0365 C131.464497,110.707503 130.683504,111.240998 129.7925,111.637 C128.901496,112.033002 127.950005,112.231 126.938,112.231 C125.881995,112.231 124.903005,112.038502 124.001,111.6535 C123.098995,111.268498 122.318003,110.729503 121.658,110.0365 C120.997997,109.343497 120.486502,108.524005 120.1235,107.578 C119.760498,106.631995 119.579,105.598006 119.579,104.476 L119.579,89.989 L122.087,89.989 L122.087,99.79 Z M149.002,100.813 C148.517998,100.460998 148.067002,100.213501 147.649,100.0705 C147.230998,99.9274993 146.747003,99.856 146.197,99.856 C145.492996,99.856 144.838503,99.9934986 144.2335,100.2685 C143.628497,100.543501 143.095002,100.911998 142.633,101.374 C142.170998,101.836002 141.808001,102.374997 141.544,102.991 C141.279999,103.607003 141.148,104.266996 141.148,104.971 C141.148,105.455002 141.208499,105.883998 141.3295,106.258 C141.450501,106.632002 141.675998,107.104997 142.006,107.677 L149.002,100.813 Z M143.458,109.03 C144.052003,109.382002 144.546998,109.618499 144.943,109.7395 C145.339002,109.860501 145.789997,109.921 146.296,109.921 C146.956003,109.921 147.632497,109.756002 148.3255,109.426 C149.018503,109.095998 149.892995,108.524004 150.949,107.71 L150.817,110.878 C150.398998,111.142001 150.008502,111.367499 149.6455,111.5545 C149.282498,111.741501 148.925002,111.895499 148.573,112.0165 C148.220998,112.137501 147.858002,112.22 147.484,112.264 C147.109998,112.308 146.714002,112.33 146.296,112.33 C145.239995,112.33 144.255505,112.137502 143.3425,111.7525 C142.429495,111.367498 141.637503,110.845003 140.9665,110.185 C140.295497,109.524997 139.762002,108.749504 139.366,107.8585 C138.969998,106.967496 138.772,106.005005 138.772,104.971 C138.772,103.936995 138.969998,102.963505 139.366,102.0505 C139.762002,101.137495 140.306497,100.340003 140.9995,99.658 C141.692503,98.9759966 142.500995,98.437002 143.425,98.041 C144.349005,97.644998 145.338995,97.447 146.395,97.447 C146.967003,97.447 147.500498,97.4964995 147.9955,97.5955 C148.490502,97.6945005 148.968998,97.8649988 149.431,98.107 C149.893002,98.3490012 150.354998,98.6624981 150.817,99.0475 C151.279002,99.4325019 151.773997,99.8999972 152.302,100.45 L143.458,109.03 Z M156.513,97.909 L157.602,97.909 L157.602,94.708 L160.077,94.015 L160.077,97.909 L163.806,97.909 L163.806,100.186 L160.077,100.186 L160.077,106.852 C160.077,107.974006 160.219999,108.754998 160.506,109.195 C160.792001,109.635002 161.319996,109.855 162.09,109.855 C162.310001,109.855 162.540999,109.844 162.783,109.822 C163.025001,109.8 163.398997,109.745 163.905,109.657 L163.905,111.934 C163.442998,112.044001 163.069001,112.1155 162.783,112.1485 C162.496999,112.1815 162.189002,112.198 161.859,112.198 C159.020986,112.198 157.602,110.658015 157.602,107.578 L157.602,100.186 L156.513,100.186 L156.513,97.909 Z M175.508,99.823 C174.803996,99.823 174.144003,99.9549987 173.528,100.219 C172.911997,100.483001 172.373002,100.845998 171.911,101.308 C171.448998,101.770002 171.086001,102.303497 170.822,102.9085 C170.557999,103.513503 170.426,104.156997 170.426,104.839 C170.426,105.543004 170.552499,106.202997 170.8055,106.819 C171.058501,107.435003 171.404998,107.968498 171.845,108.4195 C172.285002,108.870502 172.801997,109.222499 173.396,109.4755 C173.990003,109.728501 174.627997,109.855 175.31,109.855 C176.058004,109.855 176.739997,109.734001 177.356,109.492 C177.972003,109.249999 178.505498,108.903502 178.9565,108.4525 C179.407502,108.001498 179.759499,107.473503 180.0125,106.8685 C180.265501,106.263497 180.392,105.598004 180.392,104.872 C180.392,104.145996 180.265501,103.475003 180.0125,102.859 C179.759499,102.242997 179.418502,101.709502 178.9895,101.2585 C178.560498,100.807498 178.043503,100.455501 177.4385,100.2025 C176.833497,99.9494987 176.190003,99.823 175.508,99.823 Z M182.9,112 L181.811,108.568 C180.270992,111.054012 178.126014,112.297 175.376,112.297 C174.341995,112.297 173.379504,112.110002 172.4885,111.736 C171.597496,111.361998 170.822003,110.845003 170.162,110.185 C169.501997,109.524997 168.979502,108.749504 168.5945,107.8585 C168.209498,106.967496 168.017,106.005005 168.017,104.971 C168.017,103.936995 168.209498,102.963505 168.5945,102.0505 C168.979502,101.137495 169.512997,100.340003 170.195,99.658 C170.877003,98.9759966 171.668995,98.437002 172.571,98.041 C173.473005,97.644998 174.440995,97.447 175.475,97.447 C176.531005,97.447 177.537495,97.6614979 178.4945,98.0905 C179.451505,98.5195021 180.270997,99.129996 180.953,99.922 C181.151001,100.164001 181.332499,100.394999 181.4975,100.615 C181.662501,100.835001 181.816499,101.093499 181.9595,101.3905 C182.102501,101.687501 182.245499,102.028498 182.3885,102.4135 C182.531501,102.798502 182.690999,103.254997 182.867,103.783 L185.507,112 L182.9,112 Z" id="runningbeta" fill="#ffffff"></path>
            </g>
        </g>
    </g>
</svg>