<?xml version="1.0" encoding="UTF-8"?>
<svg width="196px" height="122px" viewBox="0 0 196 122" version="1.1" xmlns="http://www.w3.org/2000/svg" xmlns:xlink="http://www.w3.org/1999/xlink">
    <g id="Page-1" stroke="none" stroke-width="1" fill="none" fill-rule="evenodd">
        <g id="Beta-Dark">
            <g id="Group">
                <g transform="translate(17.000000, 0.000000)" id="Shape" fill-rule="nonzero">
                    <g transform="translate(31.000000, 0.000000)">
                        <path d="M61.4,0 L53.9,9.5 L52.6,19.2 L49.3,19.2 L47.8,22.7 L43,24.5 L41.2,35.3 L37.9,38.8 L37.9,43 C37.9,43 25.8,54 25.1,54 C24.4,54 10.8,61.9 10.8,61.9 L0,81.4 L131.5,81.4 L119.6,63.6 L116.3,53.9 L113.4,55.4 L106.8,53.4 L101.3,45.7 L96.7,43.3 L93.8,40.7 L94.9,35.6 L85.2,15.8 L80.1,12.1 L70,2.9 L61.4,0 Z" fill="#ffffff"></path>
                        <polygon fill="#3c3d41" points="73 19.8 69.1 16.5 66.2 6.4 62.8 1.9 55.8 10.7 53.7 26 51.2 20.4 49.7 23.9 44.8 25.7 42.4 40.7 39.8 40 39.8 44.2 27 55.2 16.5 61 30.8 58.9 42.9 52.1 41.8 57 49.5 55 57.8 46 58.5 52.1 63.3 48 63.1 40.7 67.2 24"></polygon>
                    </g>
                    <g transform="translate(0.000000, 43.000000)">
                        <polygon fill="#ffffff" points="0.1 38.4 14.5 17.8 18.3 16.3 22.2 11.3 29.7 9.2 41.6 0.2 48.9 3.8 52.4 6.8 65.5 12.3 77.8 38.4"></polygon>
                        <polygon fill="#3c3d41" points="41.7 3.2 29.9 12.1 23.4 13.5 19.2 21.6 19.2 18 15.9 19.3 11.1 27 18.2 26 26.4 21.9 27.8 24.2 36.8 21.2 37.9 12.3 43.6 7.1 41.3 6.9"></polygon>
                    </g>
                </g>
                <polygon id="Shape" fill="#ffffff" fill-rule="nonzero" points="195.9 84.8 0.7 84.8 0.7 103.2 0.7 121.6 195.9 121.6 195.9 103.2"></polygon>
                <path d="M10.937,105.895 C10.937,103.188986 11.8499909,101.132007 13.676,99.724 C14.3580034,99.1959974 15.0509965,98.8165012 15.755,98.5855 C16.4590035,98.3544988 17.3059951,98.2280001 18.296,98.206 L18.296,99.427 C17.3719954,99.5150004 16.6350028,99.657999 16.085,99.856 C15.5349973,100.054001 14.9850028,100.372998 14.435,100.813 C13.7529966,101.363003 13.2305018,102.022996 12.8675,102.793 C12.5044982,103.563004 12.323,104.409995 12.323,105.334 L12.323,112 L10.937,112 L10.937,105.895 Z M24.322,98.437 L24.322,106.984 C24.322,107.424002 24.3274999,107.781499 24.3385,108.0565 C24.3495001,108.331501 24.3714998,108.567999 24.4045,108.766 C24.4375002,108.964001 24.4814997,109.139999 24.5365,109.294 C24.5915003,109.448001 24.6739995,109.623999 24.784,109.822 C25.0260012,110.284002 25.4714968,110.657999 26.1205,110.944 C26.7695032,111.230001 27.5009959,111.373 28.315,111.373 C29.9870084,111.373 31.1309969,110.834005 31.747,109.756 C31.945001,109.381998 32.0769997,109.024502 32.143,108.6835 C32.2090003,108.342498 32.242,107.831003 32.242,107.149 L32.242,98.437 L33.595,98.437 L33.595,107.578 C33.595,108.964007 33.3090029,110.030996 32.737,110.779 C31.7689952,111.967006 30.2400105,112.561 28.15,112.561 C27.2259954,112.561 26.4010036,112.423501 25.675,112.1485 C24.9489964,111.873499 24.3660022,111.472003 23.926,110.944 C23.5519981,110.503998 23.2935007,110.020003 23.1505,109.492 C23.0074993,108.963997 22.936,108.238005 22.936,107.314 L22.936,98.437 L24.322,98.437 Z M39.621,98.437 L41.007,98.437 L41.007,100.582 C41.403002,100.053997 41.7659984,99.6195017 42.096,99.2785 C42.4260017,98.9374983 42.7669982,98.668001 43.119,98.47 C43.4710018,98.271999 43.844998,98.1290004 44.241,98.041 C44.637002,97.9529996 45.0879975,97.909 45.594,97.909 C46.8700064,97.909 47.8159969,98.2499966 48.432,98.932 C48.6520011,99.1740012 48.8389992,99.4489985 48.993,99.757 C49.1470008,100.065002 49.3449988,100.570996 49.587,101.275 L53.217,112 L51.732,112 L48.696,102.892 C48.4539988,102.165996 48.2615007,101.599502 48.1185,101.1925 C47.9754993,100.785498 47.8545005,100.472001 47.7555,100.252 C47.6564995,100.031999 47.5575005,99.8780004 47.4585,99.79 C47.3594995,99.7019996 47.2330008,99.6140004 47.079,99.526 C46.880999,99.4159995 46.6005018,99.3170004 46.2375,99.229 C45.8744982,99.1409996 45.5390015,99.097 45.231,99.097 C44.7249975,99.097 44.2245025,99.2179988 43.7295,99.46 C43.2344975,99.7020012 42.783502,100.009998 42.3765,100.384 C41.969498,100.758002 41.6395013,101.186998 41.3865,101.671 C41.1334987,102.155002 41.007,102.627998 41.007,103.09 L41.007,112 L39.621,112 L39.621,98.437 Z M57.494,98.437 L58.88,98.437 L58.88,100.582 C59.276002,100.053997 59.6389984,99.6195017 59.969,99.2785 C60.2990017,98.9374983 60.6399982,98.668001 60.992,98.47 C61.3440018,98.271999 61.717998,98.1290004 62.114,98.041 C62.510002,97.9529996 62.9609975,97.909 63.467,97.909 C64.7430064,97.909 65.6889969,98.2499966 66.305,98.932 C66.5250011,99.1740012 66.7119992,99.4489985 66.866,99.757 C67.0200008,100.065002 67.2179988,100.570996 67.46,101.275 L71.09,112 L69.605,112 L66.569,102.892 C66.3269988,102.165996 66.1345007,101.599502 65.9915,101.1925 C65.8484993,100.785498 65.7275005,100.472001 65.6285,100.252 C65.5294995,100.031999 65.4305005,99.8780004 65.3315,99.79 C65.2324995,99.7019996 65.1060008,99.6140004 64.952,99.526 C64.753999,99.4159995 64.4735018,99.3170004 64.1105,99.229 C63.7474982,99.1409996 63.4120015,99.097 63.104,99.097 C62.5979975,99.097 62.0975025,99.2179988 61.6025,99.46 C61.1074975,99.7020012 60.656502,100.009998 60.2495,100.384 C59.842498,100.758002 59.5125013,101.186998 59.2595,101.671 C59.0064987,102.155002 58.88,102.627998 58.88,103.09 L58.88,112 L57.494,112 L57.494,98.437 Z M75.631,98.437 L77.05,98.437 L77.05,112 L75.631,112 L75.631,98.437 Z M76.39,91.606 C76.7420018,91.606 77.0334988,91.7269988 77.2645,91.969 C77.4955012,92.2110012 77.611,92.5189981 77.611,92.893 C77.611,93.2450018 77.4900012,93.5364988 77.248,93.7675 C77.0059988,93.9985012 76.7090018,94.114 76.357,94.114 C75.9829981,94.114 75.6805012,93.9875013 75.4495,93.7345 C75.2184988,93.4814987 75.103,93.1680019 75.103,92.794 C75.103,92.4199981 75.2184988,92.128501 75.4495,91.9195 C75.6805012,91.710499 75.993998,91.606 76.39,91.606 Z M83.637,98.437 L85.023,98.437 L85.023,100.582 C85.419002,100.053997 85.7819984,99.6195017 86.112,99.2785 C86.4420017,98.9374983 86.7829982,98.668001 87.135,98.47 C87.4870018,98.271999 87.860998,98.1290004 88.257,98.041 C88.653002,97.9529996 89.1039975,97.909 89.61,97.909 C90.8860064,97.909 91.8319969,98.2499966 92.448,98.932 C92.6680011,99.1740012 92.8549992,99.4489985 93.009,99.757 C93.1630008,100.065002 93.3609988,100.570996 93.603,101.275 L97.233,112 L95.748,112 L92.712,102.892 C92.4699988,102.165996 92.2775007,101.599502 92.1345,101.1925 C91.9914993,100.785498 91.8705005,100.472001 91.7715,100.252 C91.6724995,100.031999 91.5735005,99.8780004 91.4745,99.79 C91.3754995,99.7019996 91.2490008,99.6140004 91.095,99.526 C90.896999,99.4159995 90.6165018,99.3170004 90.2535,99.229 C89.8904982,99.1409996 89.5550015,99.097 89.247,99.097 C88.7409975,99.097 88.2405025,99.2179988 87.7455,99.46 C87.2504975,99.7020012 86.799502,100.009998 86.3925,100.384 C85.985498,100.758002 85.6555013,101.186998 85.4025,101.671 C85.1494987,102.155002 85.023,102.627998 85.023,103.09 L85.023,112 L83.637,112 L83.637,98.437 Z M107.945,99.229 C107.152996,99.229 106.394004,99.3884984 105.668,99.7075 C104.941996,100.026502 104.309503,100.449997 103.7705,100.978 C103.231497,101.506003 102.802502,102.121996 102.4835,102.826 C102.164498,103.530004 102.005,104.277996 102.005,105.07 C102.005,105.928004 102.158998,106.719996 102.467,107.446 C102.775002,108.172004 103.192997,108.809997 103.721,109.36 C104.249003,109.910003 104.875996,110.338998 105.602,110.647 C106.328004,110.955002 107.108996,111.109 107.945,111.109 C108.759004,111.109 109.528996,110.955002 110.255,110.647 C110.981004,110.338998 111.613497,109.910003 112.1525,109.36 C112.691503,108.809997 113.114998,108.177504 113.423,107.4625 C113.731002,106.747496 113.885,105.972004 113.885,105.136 C113.885,104.321996 113.731002,103.557504 113.423,102.8425 C113.114998,102.127496 112.691503,101.500503 112.1525,100.9615 C111.613497,100.422497 110.981004,99.9990015 110.255,99.691 C109.528996,99.3829985 108.759004,99.229 107.945,99.229 Z M102.203,112.132 C102.577002,112.902004 102.912499,113.484998 103.2095,113.881 C103.506501,114.277002 103.841998,114.639998 104.216,114.97 C105.272005,115.850004 106.503993,116.29 107.912,116.29 C109.144006,116.29 110.265995,115.938004 111.278,115.234 C112.290005,114.529996 113.015998,113.606006 113.456,112.462 C113.588001,112.087998 113.6815,111.714002 113.7365,111.34 C113.7915,110.965998 113.819,110.482003 113.819,109.888 L113.819,109.261 C113.246997,110.251005 112.438505,111.026497 111.3935,111.5875 C110.348495,112.148503 109.188006,112.429 107.912,112.429 C106.921995,112.429 105.987004,112.242002 105.107,111.868 C104.226996,111.493998 103.457003,110.977003 102.797,110.317 C102.136997,109.656997 101.620002,108.887004 101.246,108.007 C100.871998,107.126996 100.685,106.192005 100.685,105.202 C100.685,104.189995 100.871998,103.244004 101.246,102.364 C101.620002,101.483996 102.136997,100.714003 102.797,100.054 C103.457003,99.3939967 104.226996,98.8715019 105.107,98.4865 C105.987004,98.1014981 106.921995,97.909 107.912,97.909 C108.968005,97.909 109.979995,98.1344977 110.948,98.5855 C111.916005,99.0365023 112.751996,99.657996 113.456,100.45 C114.578006,101.814007 115.139,103.50799 115.139,105.532 L115.139,110.812 C115.139,111.736005 114.946502,112.615996 114.5615,113.452 C114.176498,114.288004 113.654003,115.019497 112.994,115.6465 C112.333997,116.273503 111.569504,116.773998 110.7005,117.148 C109.831496,117.522002 108.924005,117.709 107.978,117.709 C107.053995,117.709 106.146504,117.538502 105.2555,117.1975 C104.364496,116.856498 103.600003,116.378003 102.962,115.762 C102.741999,115.563999 102.544001,115.360501 102.368,115.1515 C102.191999,114.942499 102.027001,114.717001 101.873,114.475 C101.718999,114.232999 101.565001,113.952502 101.411,113.6335 C101.256999,113.314498 101.092001,112.946002 100.916,112.528 L102.203,112.132 Z M127.237,99.823 C126.532996,99.823 125.867503,99.9604986 125.2405,100.2355 C124.613497,100.510501 124.069002,100.878998 123.607,101.341 C123.144998,101.803002 122.776501,102.341997 122.5015,102.958 C122.226499,103.574003 122.089,104.233996 122.089,104.938 C122.089,105.620003 122.220999,106.257997 122.485,106.852 C122.749001,107.446003 123.106498,107.962998 123.5575,108.403 C124.008502,108.843002 124.536497,109.189499 125.1415,109.4425 C125.746503,109.695501 126.389997,109.822 127.072,109.822 C127.754003,109.822 128.402997,109.690001 129.019,109.426 C129.635003,109.161999 130.173998,108.799002 130.636,108.337 C131.098002,107.874998 131.460999,107.341503 131.725,106.7365 C131.989001,106.131497 132.121,105.488003 132.121,104.806 C132.121,104.145997 131.989001,103.513503 131.725,102.9085 C131.460999,102.303497 131.103502,101.770002 130.6525,101.308 C130.201498,100.845998 129.684503,100.483001 129.1015,100.219 C128.518497,99.9549987 127.897003,99.823 127.237,99.823 Z M122.287,99.79 C122.991004,98.9539958 123.716996,98.3655017 124.465,98.0245 C125.213004,97.6834983 126.114995,97.513 127.171,97.513 C128.183005,97.513 129.139995,97.7054981 130.042,98.0905 C130.944005,98.4755019 131.724997,98.9979967 132.385,99.658 C133.045003,100.318003 133.567498,101.087996 133.9525,101.968 C134.337502,102.848004 134.53,103.793995 134.53,104.806 C134.53,105.818005 134.332002,106.774995 133.936,107.677 C133.539998,108.579005 133.006503,109.365497 132.3355,110.0365 C131.664497,110.707503 130.883504,111.240998 129.9925,111.637 C129.101496,112.033002 128.150005,112.231 127.138,112.231 C126.081995,112.231 125.103005,112.038502 124.201,111.6535 C123.298995,111.268498 122.518003,110.729503 121.858,110.0365 C121.197997,109.343497 120.686502,108.524005 120.3235,107.578 C119.960498,106.631995 119.779,105.598006 119.779,104.476 L119.779,89.989 L122.287,89.989 L122.287,99.79 Z M149.202,100.813 C148.717998,100.460998 148.267002,100.213501 147.849,100.0705 C147.430998,99.9274993 146.947003,99.856 146.397,99.856 C145.692996,99.856 145.038503,99.9934986 144.4335,100.2685 C143.828497,100.543501 143.295002,100.911998 142.833,101.374 C142.370998,101.836002 142.008001,102.374997 141.744,102.991 C141.479999,103.607003 141.348,104.266996 141.348,104.971 C141.348,105.455002 141.408499,105.883998 141.5295,106.258 C141.650501,106.632002 141.875998,107.104997 142.206,107.677 L149.202,100.813 Z M143.658,109.03 C144.252003,109.382002 144.746998,109.618499 145.143,109.7395 C145.539002,109.860501 145.989997,109.921 146.496,109.921 C147.156003,109.921 147.832497,109.756002 148.5255,109.426 C149.218503,109.095998 150.092995,108.524004 151.149,107.71 L151.017,110.878 C150.598998,111.142001 150.208502,111.367499 149.8455,111.5545 C149.482498,111.741501 149.125002,111.895499 148.773,112.0165 C148.420998,112.137501 148.058002,112.22 147.684,112.264 C147.309998,112.308 146.914002,112.33 146.496,112.33 C145.439995,112.33 144.455505,112.137502 143.5425,111.7525 C142.629495,111.367498 141.837503,110.845003 141.1665,110.185 C140.495497,109.524997 139.962002,108.749504 139.566,107.8585 C139.169998,106.967496 138.972,106.005005 138.972,104.971 C138.972,103.936995 139.169998,102.963505 139.566,102.0505 C139.962002,101.137495 140.506497,100.340003 141.1995,99.658 C141.892503,98.9759966 142.700995,98.437002 143.625,98.041 C144.549005,97.644998 145.538995,97.447 146.595,97.447 C147.167003,97.447 147.700498,97.4964995 148.1955,97.5955 C148.690502,97.6945005 149.168998,97.8649988 149.631,98.107 C150.093002,98.3490012 150.554998,98.6624981 151.017,99.0475 C151.479002,99.4325019 151.973997,99.8999973 152.502,100.45 L143.658,109.03 Z M156.713,97.909 L157.802,97.909 L157.802,94.708 L160.277,94.015 L160.277,97.909 L164.006,97.909 L164.006,100.186 L160.277,100.186 L160.277,106.852 C160.277,107.974006 160.419999,108.754998 160.706,109.195 C160.992001,109.635002 161.519996,109.855 162.29,109.855 C162.510001,109.855 162.740999,109.844 162.983,109.822 C163.225001,109.8 163.598997,109.745 164.105,109.657 L164.105,111.934 C163.642998,112.044001 163.269001,112.1155 162.983,112.1485 C162.696999,112.1815 162.389002,112.198 162.059,112.198 C159.220986,112.198 157.802,110.658015 157.802,107.578 L157.802,100.186 L156.713,100.186 L156.713,97.909 Z M175.708,99.823 C175.003996,99.823 174.344003,99.9549987 173.728,100.219 C173.111997,100.483001 172.573002,100.845998 172.111,101.308 C171.648998,101.770002 171.286001,102.303497 171.022,102.9085 C170.757999,103.513503 170.626,104.156997 170.626,104.839 C170.626,105.543004 170.752499,106.202997 171.0055,106.819 C171.258501,107.435003 171.604998,107.968498 172.045,108.4195 C172.485002,108.870502 173.001997,109.222499 173.596,109.4755 C174.190003,109.728501 174.827997,109.855 175.51,109.855 C176.258004,109.855 176.939997,109.734001 177.556,109.492 C178.172003,109.249999 178.705498,108.903502 179.1565,108.4525 C179.607502,108.001498 179.959499,107.473503 180.2125,106.8685 C180.465501,106.263497 180.592,105.598004 180.592,104.872 C180.592,104.145996 180.465501,103.475003 180.2125,102.859 C179.959499,102.242997 179.618502,101.709502 179.1895,101.2585 C178.760498,100.807498 178.243503,100.455501 177.6385,100.2025 C177.033497,99.9494987 176.390003,99.823 175.708,99.823 Z M183.1,112 L182.011,108.568 C180.470992,111.054012 178.326014,112.297 175.576,112.297 C174.541995,112.297 173.579504,112.110002 172.6885,111.736 C171.797496,111.361998 171.022003,110.845003 170.362,110.185 C169.701997,109.524997 169.179502,108.749504 168.7945,107.8585 C168.409498,106.967496 168.217,106.005005 168.217,104.971 C168.217,103.936995 168.409498,102.963505 168.7945,102.0505 C169.179502,101.137495 169.712997,100.340003 170.395,99.658 C171.077003,98.9759966 171.868995,98.437002 172.771,98.041 C173.673005,97.644998 174.640995,97.447 175.675,97.447 C176.731005,97.447 177.737495,97.6614979 178.6945,98.0905 C179.651505,98.5195021 180.470997,99.129996 181.153,99.922 C181.351001,100.164001 181.532499,100.394999 181.6975,100.615 C181.862501,100.835001 182.016499,101.093499 182.1595,101.3905 C182.302501,101.687501 182.445499,102.028498 182.5885,102.4135 C182.731501,102.798502 182.890999,103.254997 183.067,103.783 L185.707,112 L183.1,112 Z" id="runningbeta" fill="pink"></path>
            </g>
        </g>
    </g>
</svg>