<?xml version="1.0" encoding="UTF-8"?>
<svg width="201px" height="201px" viewBox="0 0 201 201" version="1.1" xmlns="http://www.w3.org/2000/svg" xmlns:xlink="http://www.w3.org/1999/xlink">
    <!-- Generator: Sketch 42 (36781) - http://www.bohemiancoding.com/sketch -->
    <title>Beta Round</title>
    <desc>Created with Sketch.</desc>
    <defs>
        <path d="M100.7,0.3 C45.5857994,0.3 0.7,45.1857994 0.7,100.3 C0.7,155.414201 45.5857994,200.3 100.7,200.3 C155.814201,200.3 200.7,155.414201 200.7,100.3 C200.7,45.1857994 155.814201,0.3 100.7,0.3 Z" id="path-1"></path>
        <path d="M100.7,5.3 C48.3415094,5.3 5.7,47.9415094 5.7,100.3 C5.7,152.658491 48.3415094,195.3 100.7,195.3 C153.058491,195.3 195.7,152.658491 195.7,100.3 C195.7,47.9415094 153.058491,5.3 100.7,5.3 Z" id="path-3"></path>
    </defs>
    <g id="Page-1" stroke="none" stroke-width="1" fill="none" fill-rule="evenodd">
        <g id="Beta-Round">
            <g id="Group">
                <g>
                    <mask id="mask-2" fill="white">
                        <use xlink:href="#path-1"></use>
                    </mask>
                    <use id="Shape" fill="#014E72" fill-rule="nonzero" xlink:href="#path-1"></use>
                    <mask id="mask-4" fill="white">
                        <use xlink:href="#path-3"></use>
                    </mask>
                    <use id="Shape" fill="#FFFFFF" fill-rule="nonzero" xlink:href="#path-3"></use>
                    <g mask="url(#mask-4)">
                        <g transform="translate(-64.000000, 26.000000)">
                            <g transform="translate(0.736196, 0.000000)">
                                <path d="M155.948466,0 L136.899387,24.097561 L133.597546,48.702439 L125.215951,48.702439 L121.406135,57.5804878 L109.214724,62.1463415 L104.642945,89.5414634 L96.2613497,98.4195122 L96.2613497,109.073171 C96.2613497,109.073171 65.5288344,136.97561 63.7509202,136.97561 C61.9730061,136.97561 27.4306748,157.014634 27.4306748,157.014634 L0,206.478049 L333.993865,206.478049 L303.769325,161.326829 L295.38773,136.721951 L288.022086,140.526829 L271.258896,135.453659 L257.289571,115.921951 L245.606135,109.834146 L238.240491,103.239024 L241.034356,90.302439 L216.397546,40.0780488 L203.444172,30.6926829 L177.791411,7.35609756 L155.948466,0 Z" id="Shape" fill="#014E72" fill-rule="nonzero"></path>
                                <polygon id="Shape" fill="#FFFFFF" fill-rule="nonzero" points="185.411043 50.2243902 175.505521 41.8536585 168.139877 16.2341463 159.504294 4.8195122 141.725153 27.1414634 136.391411 65.9512195 130.041718 51.7463415 126.231902 60.6243902 113.786503 65.1902439 107.690798 103.239024 101.087117 101.463415 101.087117 112.117073 68.5766871 140.019512 41.9079755 154.731707 78.2282209 149.404878 108.960736 132.156098 106.166871 144.585366 125.723926 139.512195 146.804908 116.682927 148.582822 132.156098 160.774233 121.756098 160.266258 103.239024 170.679755 60.8780488"></polygon>
                            </g>
                        </g>
                    </g>
                </g>
            </g>
        </g>
    </g>
</svg>