<?xml version="1.0" encoding="utf-8"?>
<svg id="master-artboard" viewBox="0 0 800 800" version="1.1" xmlns="http://www.w3.org/2000/svg" x="0px" y="0px" style="enable-background:new 0 0 336 235.2;" width="800px" height="800px"><rect id="ee-background" x="0" y="0" width="800" height="800" style="fill: white; fill-opacity: 0; pointer-events: none;"/><path id="path278" style="fill:#eeeab8;fill-opacity:1;fill-rule:nonzero;stroke:none" d="m 6799.86,5109.89 c -5.91,4.28 -13.57,8.43 -22.65,12.23 2.4,-1.5 4.63,-2.83 6.75,-4.03 5.84,-2.57 11.18,-5.31 15.9,-8.2" transform="matrix(0.41026458144187933, 0, 0, -0.41026458144187933, -2140.890688435853, 2554.058819053841)"/><path id="path280" style="fill:#eeeab8;fill-opacity:1;fill-rule:nonzero;stroke:none" d="m 6799.86,5109.89 c -4.72,2.89 -10.06,5.63 -15.9,8.2 9.59,-5.53 15.9,-8.2 15.9,-8.2" transform="matrix(0.41026458144187933, 0, 0, -0.41026458144187933, -2140.890688435853, 2554.058819053841)"/><path id="path282" style="fill:#eeeab8;fill-opacity:1;fill-rule:nonzero;stroke:none" d="m 5851.29,5122.12 c -9.08,-3.8 -16.76,-7.95 -22.68,-12.23 4.75,2.89 10.06,5.63 15.92,8.2 2.13,1.2 4.36,2.53 6.76,4.03" transform="matrix(0.41026458144187933, 0, 0, -0.41026458144187933, -2140.890688435853, 2554.058819053841)"/><path id="path284" style="fill:#eeeab8;fill-opacity:1;fill-rule:nonzero;stroke:none" d="m 5828.61,5109.89 c 0,0 6.31,2.67 15.92,8.2 -5.86,-2.57 -11.17,-5.31 -15.92,-8.2" transform="matrix(0.41026458144187933, 0, 0, -0.41026458144187933, -2140.890688435853, 2554.058819053841)"/><path id="path286" style="fill:#c9c79d;fill-opacity:1;fill-rule:nonzero;stroke:none" d="m 6313.16,4834.91 c -122.26,0 -229.14,58.52 -289.08,146.06 4.16,-77.74 38.63,-147.31 92.07,-197.06 v -91.67 c -27.91,-21.76 -45.94,-55.62 -45.94,-93.75 h 237.8 c 0,38.13 -18.01,71.99 -45.96,93.75 v 18.41 c 16.9,-3.05 34.22,-4.9 51.99,-4.9 v 129.21 l -0.88,-0.05" transform="matrix(0.41026458144187933, 0, 0, -0.41026458144187933, -2140.890688435853, 2554.058819053841)"/><path id="path288" style="fill:#eeeab8;fill-opacity:1;fill-rule:nonzero;stroke:none" d="m 6511.95,4692.24 v 91.67 c 54.1,50.38 88.79,121.06 92.23,199.98 -59.39,-88.94 -166.91,-148.63 -290.14,-148.93 v -129.21 c 17.8,0 35.08,1.85 52,4.9 v -18.41 c -27.91,-21.76 -45.94,-55.62 -45.94,-93.75 h 237.79 c 0,38.13 -18.03,71.99 -45.94,93.75" transform="matrix(0.41026458144187933, 0, 0, -0.41026458144187933, -2140.890688435853, 2554.058819053841)"/><path id="path290" style="fill:#c9c79d;fill-opacity:1;fill-rule:nonzero;stroke:none" d="m 6212.36,4914.76 -0.09,-0.16 c 19.43,-9.71 39.64,-20.64 60.64,-32.96 13.44,-7.88 27.07,-16.11 41.13,-25.17 v 126.78 304.09 c -160.6,0 -290.76,-130.19 -290.76,-290.79 0,-5.27 0.53,-10.41 0.8,-15.58 30.67,-44.79 73.65,-81.89 124.65,-107.51 -3.24,19.28 -6.17,39.6 -9.32,60.91 22.84,-6.96 47.13,-13.56 72.95,-19.61" transform="matrix(0.41026458144187933, 0, 0, -0.41026458144187933, -2140.890688435853, 2554.058819053841)"/><path id="path292" style="fill:#c9c79d;fill-opacity:1;fill-rule:nonzero;stroke:none" d="m 6314.04,5287.34 v -304.09 h 0.04 v -126.78 c 14.06,9.06 27.68,17.29 41.13,25.17 20.98,12.32 41.2,23.25 60.65,32.96 26.35,6.17 51.07,12.89 74.34,19.99 -3.05,-20.63 -5.79,-40.48 -8.87,-59.24 50.47,26.12 92.81,63.56 122.85,108.54 0.18,4.23 0.66,8.39 0.66,12.66 0,160.6 -130.17,290.79 -290.8,290.79" transform="matrix(0.41026458144187933, 0, 0, -0.41026458144187933, -2140.890688435853, 2554.058819053841)"/><path id="path294" style="fill:#c9c79d;fill-opacity:1;fill-rule:nonzero;stroke:none" d="m 6314.04,4834.96 v 21.51 c -14.06,9.06 -27.69,17.29 -41.13,25.17 -21,12.32 -41.21,23.25 -60.64,32.96 l 0.09,0.16 c -25.82,6.05 -50.11,12.65 -72.95,19.61 3.15,-21.31 6.08,-41.63 9.32,-60.91 48.69,-24.5 104.69,-38.55 164.43,-38.55 l 0.88,0.05" transform="matrix(0.41026458144187933, 0, 0, -0.41026458144187933, -2140.890688435853, 2554.058819053841)"/><path id="path296" style="fill:#c9c79d;fill-opacity:1;fill-rule:nonzero;stroke:none" d="m 6415.86,4914.6 c -19.45,-9.71 -39.67,-20.64 -60.65,-32.96 -13.45,-7.88 -27.07,-16.11 -41.13,-25.17 v 126.78 h -0.04 v -126.78 -21.51 c 60.92,0.15 117.99,14.86 167.29,40.39 3.08,18.76 5.82,38.61 8.87,59.24 -23.27,-7.1 -47.99,-13.82 -74.34,-19.99" transform="matrix(0.41026458144187933, 0, 0, -0.41026458144187933, -2140.890688435853, 2554.058819053841)"/><path id="path298" style="fill:#c9c79d;fill-opacity:1;fill-rule:nonzero;stroke:none" d="m 6313.16,4834.91 c -59.74,0 -115.74,14.05 -164.43,38.55 16.68,-98.97 43.03,-167.71 165.31,-167.71 v 129.21 l -0.88,-0.05" transform="matrix(0.41026458144187933, 0, 0, -0.41026458144187933, -2140.890688435853, 2554.058819053841)"/><path id="path300" style="fill:#eeeab8;fill-opacity:1;fill-rule:nonzero;stroke:none" d="m 6481.33,4875.35 c -49.3,-25.53 -106.37,-40.24 -167.29,-40.39 v -129.21 c 125.88,0 151,69.57 167.29,169.6" transform="matrix(0.41026458144187933, 0, 0, -0.41026458144187933, -2140.890688435853, 2554.058819053841)"/><path id="path302" style="fill:#eeeab8;fill-opacity:1;fill-rule:nonzero;stroke:none" d="m 6459.45,5550.48 c 74.96,303.92 322.13,410.3 322.13,410.3 0,0 176.68,-461.24 -161.07,-571.21 l -161.06,160.91" transform="matrix(0.41026458144187933, 0, 0, -0.41026458144187933, -2140.890688435853, 2554.058819053841)"/><path id="path304" style="fill:#f57892;fill-opacity:1;fill-rule:nonzero;stroke:none" d="m 6495.53,5522.51 c 96.54,288.69 251.15,339.04 251.15,339.04 0,0 133.61,-275.68 -159.92,-443.83 l -91.23,104.79" transform="matrix(0.41026458144187933, 0, 0, -0.41026458144187933, -2140.890688435853, 2554.058819053841)"/><path id="path306" style="fill:#eeeab8;fill-opacity:1;fill-rule:nonzero;stroke:none" d="m 6168.67,5550.48 c -74.98,303.92 -322.13,410.3 -322.13,410.3 0,0 -176.7,-461.24 161.04,-571.21 l 161.09,160.91" transform="matrix(0.41026458144187933, 0, 0, -0.41026458144187933, -2140.890688435853, 2554.058819053841)"/><path id="path308" style="fill:#f57892;fill-opacity:1;fill-rule:nonzero;stroke:none" d="m 6132.6,5522.51 c -96.55,288.69 -251.17,339.04 -251.17,339.04 0,0 -133.6,-275.68 159.94,-443.83 l 91.23,104.79" transform="matrix(0.41026458144187933, 0, 0, -0.41026458144187933, -2140.890688435853, 2554.058819053841)"/><path id="path310" style="fill:#c9c79d;fill-opacity:1;fill-rule:nonzero;stroke:none" d="m 6132.42,4823.74 c -98.49,-81.17 -227.95,-26.82 -304.53,57.9 -6,6.61 -12.79,12.57 -19.94,18.22 -32.42,1.54 -67.66,-2.13 -96.56,-18.22 0,0 51.79,-39.11 71.48,-82.03 0,0 -58.08,-11.83 -103.67,16.88 0,0 5.74,-68.6 54.34,-127.91 15.19,-4.65 31.56,-8.81 49.33,-12.32 299.45,-59 385.63,111.17 385.63,111.17 l -36.08,36.31" transform="matrix(0.41026458144187933, 0, 0, -0.41026458144187933, -2140.890688435853, 2554.058819053841)"/><path id="path312" style="fill:#919597;fill-opacity:1;fill-rule:nonzero;stroke:none" d="m 5782.87,4799.61 c -19.69,42.92 -71.48,82.03 -71.48,82.03 28.9,16.09 64.14,19.76 96.56,18.22 -84.51,66.75 -241.37,69.28 -241.37,69.28 0,0 -73.45,-206.86 166.96,-280.56 -48.6,59.31 -54.34,127.91 -54.34,127.91 45.59,-28.71 103.67,-16.88 103.67,-16.88" transform="matrix(0.41026458144187933, 0, 0, -0.41026458144187933, -2140.890688435853, 2554.058819053841)"/><path id="path314" style="fill:#eeeab8;fill-opacity:1;fill-rule:nonzero;stroke:none" d="m 6580.53,5121.42 c -104.14,-27.03 -195.8,-114.24 -213.85,-152.28 -15.76,8.76 -33.67,14.16 -52.99,14.16 v 198.41 447.42 c 205.37,0 371.86,-166.47 371.86,-371.84 0,-4.83 -0.53,-9.53 -0.73,-14.29 23.31,-94.92 114.87,-133.11 114.87,-133.11 -39.06,23.86 -117.01,38.02 -219.16,11.53" transform="matrix(0.41026458144187933, 0, 0, -0.41026458144187933, -2140.890688435853, 2554.058819053841)"/><path id="path316" style="fill:#eeeab8;fill-opacity:1;fill-rule:nonzero;stroke:none" d="m 6415.49,4914.6 c -9.49,23.39 -26.94,42.4 -48.81,54.54 18.05,29.31 54.47,103.74 190.02,148.95 100.1,33.36 209.9,15.66 242.99,-8.2 0,0 -101.1,-128.92 -384.2,-195.29" transform="matrix(0.41026458144187933, 0, 0, -0.41026458144187933, -2140.890688435853, 2554.058819053841)"/><path id="path318" style="fill:#35343a;fill-opacity:1;fill-rule:nonzero;stroke:none" d="m 6211.89,4914.6 c 19.46,-9.71 39.67,-20.64 60.67,-32.96 13.42,-7.88 27.07,-16.11 41.13,-25.17 v 126.83 c -19.33,0 -37.21,-5.4 -52.99,-14.16 -21.87,-12.14 -39.33,-31.15 -48.81,-54.54" transform="matrix(0.41026458144187933, 0, 0, -0.41026458144187933, -2140.890688435853, 2554.058819053841)"/><path id="path320" style="fill:#35343a;fill-opacity:1;fill-rule:nonzero;stroke:none" d="m 6366.68,4969.14 c -15.76,8.76 -33.67,14.16 -52.99,14.16 v -126.83 c 14.06,9.06 27.7,17.29 41.15,25.17 21,12.32 41.2,23.25 60.65,32.96 -9.49,23.39 -26.94,42.4 -48.81,54.54" transform="matrix(0.41026458144187933, 0, 0, -0.41026458144187933, -2140.890688435853, 2554.058819053841)"/><path id="path322" style="fill:#c9c79d;fill-opacity:1;fill-rule:nonzero;stroke:none" d="m 6047.6,5121.42 c 104.14,-27.03 195.8,-114.24 213.85,-152.28 15.76,8.76 33.65,14.16 52.94,14.16 v 198.41 447.42 c -205.33,0 -371.83,-166.47 -371.83,-371.84 0,-4.83 0.55,-9.53 0.74,-14.29 -23.3,-94.92 -114.88,-133.11 -114.88,-133.11 39.08,23.86 117.01,38.02 219.18,11.53" transform="matrix(0.41026458144187933, 0, 0, -0.41026458144187933, -2140.890688435853, 2554.058819053841)"/><path id="path324" style="fill:#c9c79d;fill-opacity:1;fill-rule:nonzero;stroke:none" d="m 6212.64,4914.6 c 9.47,23.39 26.91,42.4 48.81,54.54 -18.05,29.31 -78.34,107.07 -213.85,152.28 -100.14,33.36 -186.08,12.33 -219.18,-11.53 0,0 101.11,-128.92 384.22,-195.29" transform="matrix(0.41026458144187933, 0, 0, -0.41026458144187933, -2140.890688435853, 2554.058819053841)"/><path id="path326" style="fill:#f04235;fill-opacity:1;fill-rule:nonzero;stroke:none" d="m 6313.87,5629.13 v -0.01 l 0.39,0.01 z" transform="matrix(0.41026458144187933, 0, 0, -0.41026458144187933, -2140.890688435853, 2554.058819053841)"/><path id="path328" style="fill:#15181c;fill-opacity:1;fill-rule:nonzero;stroke:none" d="m 6261.48,4969.43 -0.03,-0.01 0.19,-0.28 z" transform="matrix(0.41026458144187933, 0, 0, -0.41026458144187933, -2140.890688435853, 2554.058819053841)"/><path id="path330" style="fill:#b8372b;fill-opacity:1;fill-rule:nonzero;stroke:none" d="m 6314.61,5629.13 h -0.35 l 0.35,-0.01 z" transform="matrix(0.41026458144187933, 0, 0, -0.41026458144187933, -2140.890688435853, 2554.058819053841)"/><path id="path332" style="fill:#b8372b;fill-opacity:1;fill-rule:nonzero;stroke:none" d="m 6261.48,4969.43 0.16,-0.29 c 15.57,8.63 33.2,13.98 52.23,14.11 v 0.05 c -19.08,0 -36.76,-5.31 -52.39,-13.87" transform="matrix(0.41026458144187933, 0, 0, -0.41026458144187933, -2140.890688435853, 2554.058819053841)"/><path id="path334" style="fill:#b8372b;fill-opacity:1;fill-rule:nonzero;stroke:none" d="m 6313.87,4983.3 v -0.05 l 0.39,0.03 z" transform="matrix(0.41026458144187933, 0, 0, -0.41026458144187933, -2140.890688435853, 2554.058819053841)"/><path id="path336" style="fill:#c9c79d;fill-opacity:1;fill-rule:nonzero;stroke:none" d="m 6308.42,4598.49 c 0,65.76 -53.3,119.06 -119.04,119.06 -65.77,0 -119.07,-53.3 -119.07,-119.06 h 238.11" transform="matrix(0.41026458144187933, 0, 0, -0.41026458144187933, -2140.890688435853, 2554.058819053841)"/><path id="path338" style="fill:#eeeab8;fill-opacity:1;fill-rule:nonzero;stroke:none" d="m 6558.38,4598.49 c 0,65.76 -53.28,119.06 -119.06,119.06 -65.75,0 -119.07,-53.3 -119.07,-119.06 h 238.13" transform="matrix(0.41026458144187933, 0, 0, -0.41026458144187933, -2140.890688435853, 2554.058819053841)"/><path id="path340" style="fill:#bd462f;fill-opacity:1;fill-rule:nonzero;stroke:none" d="m 6024.84,5301.93 c 0,0 159.26,46.19 155.67,-115.78 0,0 -155.67,-56.53 -155.67,115.78" transform="matrix(0.41026458144187933, 0, 0, -0.41026458144187933, -2140.890688435853, 2554.058819053841)"/><path id="path342" style="fill:#bd462f;fill-opacity:1;fill-rule:nonzero;stroke:none" d="m 6441.48,5186.15 c 0,0 155.67,-56.53 155.67,115.78 0,0 -159.26,46.19 -155.67,-115.78" transform="matrix(0.41026458144187933, 0, 0, -0.41026458144187933, -2140.890688435853, 2554.058819053841)"/><path id="path344" style="fill:#ffffff;fill-opacity:1;fill-rule:nonzero;stroke:none" d="m 6151.48,5259.61 c 0,-16.01 -12.96,-28.98 -28.96,-28.98 -16.02,0 -28.97,12.97 -28.97,28.98 0,16 12.95,28.97 28.97,28.97 16,-0.02 28.96,-12.97 28.96,-28.97" transform="matrix(0.41026458144187933, 0, 0, -0.41026458144187933, -2140.890688435853, 2554.058819053841)"/><path id="path346" style="fill:#ffffff;fill-opacity:1;fill-rule:nonzero;stroke:none" d="m 6569.3,5259.61 c 0,-16.01 -12.97,-28.98 -28.95,-28.98 -16.01,0 -28.96,12.97 -28.96,28.98 0,16 12.95,28.97 28.96,28.97 15.98,-0.02 28.95,-12.97 28.95,-28.97" transform="matrix(0.41026458144187933, 0, 0, -0.41026458144187933, -2140.890688435853, 2554.058819053841)"/></svg>