<?xml version="1.0" encoding="utf-8"?>
<svg id="master-artboard" viewBox="0 0 800 800" version="1.1" xmlns="http://www.w3.org/2000/svg" x="0px" y="0px" style="enable-background:new 0 0 336 235.2;" width="800px" height="800px"><rect id="ee-background" x="0" y="0" width="800" height="800" style="fill: white; fill-opacity: 0; pointer-events: none;"/><path id="path454" style="fill:#35343a;fill-opacity:1;fill-rule:nonzero;stroke:none" d="m 4471.11,3403.52 c -30.33,188.55 -148.16,341.73 -500.78,341.73 -327.59,0 -464.31,-157.98 -499.83,-350.58 -6.82,-36.92 -9.96,-75.06 -9.96,-113.65 0,-26.47 1.14,-54.3 3.59,-82.8 19.75,-229.86 248.03,-505.92 506.2,-505.92 256.8,0 486.99,282.17 506.53,513.5 2.18,25.86 3.22,51.09 3.22,75.22 0,41.68 -2.6,82.87 -8.97,122.5" transform="matrix(0.35988709018434756, 0, 0, -0.35988709018434756, -1026.028501690069, 1600.1400862795222)"/><path id="path456" style="fill:#35343a;fill-opacity:1;fill-rule:nonzero;stroke:none" d="m 3951.1,3277.85 h 0.04 c 3.62,-0.51 7.26,-0.9 11.05,-0.99 -3.79,0.09 -7.45,0.48 -11.09,0.99 z m 19.22,72.58 -68.43,58.11 -70.34,-59.75 -70.31,59.75 -70.36,-59.73 -70.35,59.73 -63.33,-53.79 c -8.45,-60.1 -8.51,-106 -8.51,-106 5.52,-228.22 192.1,-563.63 421.63,-563.63 v 592.26 73.05" transform="matrix(0.35988709018434756, 0, 0, -0.35988709018434756, -1026.028501690069, 1600.1400862795222)"/><path id="path458" style="fill:#65696c;fill-opacity:1;fill-rule:nonzero;stroke:none" d="m 4253.65,3348.81 -70.37,59.74 -70.33,-59.76 -70.37,59.76 -70.33,-59.76 -1.93,1.64 v -73.05 -592.26 c 229.72,0 416.42,335.72 421.61,564.16 0,0 -0.05,48.94 -9.37,111.91 l -58.46,47.38 -70.45,-59.76" transform="matrix(0.35988709018434756, 0, 0, -0.35988709018434756, -1026.028501690069, 1600.1400862795222)"/><path id="path460" style="fill:#c9c79d;fill-opacity:1;fill-rule:nonzero;stroke:none" d="m 3690.88,3348.81 70.36,59.73 70.31,-59.75 70.34,59.75 68.43,-58.11 v 156.23 567 c -152.62,0 -277.76,-117.12 -290.79,-266.37 l -0.14,0.17 c 0,0 0.02,-0.84 0.02,-2.17 -0.6,-7.83 -1.16,-15.7 -1.16,-23.71 0,-2.42 0.24,-4.8 0.29,-7.24 -1.66,-29.44 -6.02,-75.41 -18.81,-123.89 -9.04,-34 -22.14,-69.24 -41.56,-100.88 -14.1,-23.05 -25.27,-49.22 -34.21,-76.19 -13.32,-40.06 -21.59,-81.97 -26.76,-118.63 l 63.33,53.79 70.35,-59.73" transform="matrix(0.35988709018434756, 0, 0, -0.35988709018434756, -1026.028501690069, 1600.1400862795222)"/><path id="path462" style="fill:#eeeab8;fill-opacity:1;fill-rule:nonzero;stroke:none" d="m 4322.77,3549.57 c -17.73,29.1 -30.29,61.23 -39.2,92.6 -15.21,53.59 -19.82,105.12 -21.3,135.9 0,1.17 0.11,2.34 0.11,3.51 0,5.33 -0.5,10.55 -0.78,15.8 -0.12,6.29 -0.02,10.08 -0.02,10.08 l -0.45,-0.66 c -12.83,149.53 -138,266.86 -290.81,266.86 v -567 -156.23 l 1.93,-1.64 70.33,59.76 70.37,-59.76 70.33,59.76 70.37,-59.74 70.45,59.76 58.46,-47.38 c -4.96,33.61 -12.56,71.23 -24.2,107.54 -9.14,28.59 -20.72,56.43 -35.59,80.84" transform="matrix(0.35988709018434756, 0, 0, -0.35988709018434756, -1026.028501690069, 1600.1400862795222)"/><path id="path464" style="fill:#f68326;fill-opacity:1;fill-rule:nonzero;stroke:none" d="m 3868.35,3879.39 c -13.69,-23.98 -18.03,-53.43 -5.01,-75.29 l 82.82,-139.06 c 6.53,-11.02 15.12,-16.49 23.73,-16.49 v 276.29 c -28.18,0 -92.54,-29.66 -101.54,-45.45" transform="matrix(0.35988709018434756, 0, 0, -0.35988709018434756, -1026.028501690069, 1600.1400862795222)"/><path id="path466" style="fill:#f7cc35;fill-opacity:1;fill-rule:nonzero;stroke:none" d="m 3993.6,3665.04 82.81,139.06 c 13.06,21.9 11.38,46.11 -5,75.29 -6.82,12.15 -78.01,45.45 -101.52,45.45 v -276.29 c 8.58,0 17.2,5.47 23.71,16.49" transform="matrix(0.35988709018434756, 0, 0, -0.35988709018434756, -1026.028501690069, 1600.1400862795222)"/><path id="path468" style="fill:#c4ad8f;fill-opacity:1;fill-rule:nonzero;stroke:none" d="m 3786.49,2722.29 c 0,-20.51 -16.64,-37.17 -37.14,-37.17 -20.56,0 -37.19,16.66 -37.19,37.17 v 67.1 c 0,20.51 16.63,37.17 37.19,37.17 20.5,0 37.14,-16.66 37.14,-37.17 v -67.1" transform="matrix(0.35988709018434756, 0, 0, -0.35988709018434756, -1026.028501690069, 1600.1400862795222)"/><path id="path470" style="fill:#c4ad8f;fill-opacity:1;fill-rule:nonzero;stroke:none" d="m 3860.89,2722.29 c 0,-20.51 -16.66,-37.17 -37.19,-37.17 -20.55,0 -37.21,16.66 -37.21,37.17 v 67.1 c 0,20.51 16.66,37.17 37.21,37.17 20.53,0 37.19,-16.66 37.19,-37.17 v -67.1" transform="matrix(0.35988709018434756, 0, 0, -0.35988709018434756, -1026.028501690069, 1600.1400862795222)"/><path id="path472" style="fill:#c4ad8f;fill-opacity:1;fill-rule:nonzero;stroke:none" d="m 3935.25,2722.29 c 0,-20.51 -16.63,-37.17 -37.18,-37.17 -20.55,0 -37.18,16.66 -37.18,37.17 v 67.1 c 0,20.51 16.63,37.17 37.18,37.17 20.55,0 37.18,-16.66 37.18,-37.17 v -67.1" transform="matrix(0.35988709018434756, 0, 0, -0.35988709018434756, -1026.028501690069, 1600.1400862795222)"/><path id="path474" style="fill:#d9c5ae;fill-opacity:1;fill-rule:nonzero;stroke:none" d="m 4079.71,2722.29 c 0,-20.51 -16.64,-37.17 -37.19,-37.17 -20.55,0 -37.18,16.66 -37.18,37.17 v 67.1 c 0,20.51 16.63,37.17 37.18,37.17 20.55,0 37.19,-16.66 37.19,-37.17 v -67.1" transform="matrix(0.35988709018434756, 0, 0, -0.35988709018434756, -1026.028501690069, 1600.1400862795222)"/><path id="path476" style="fill:#d9c5ae;fill-opacity:1;fill-rule:nonzero;stroke:none" d="m 4154.08,2722.29 c 0,-20.51 -16.64,-37.17 -37.17,-37.17 -20.56,0 -37.2,16.66 -37.2,37.17 v 67.1 c 0,20.51 16.64,37.17 37.2,37.17 20.53,0 37.17,-16.66 37.17,-37.17 v -67.1" transform="matrix(0.35988709018434756, 0, 0, -0.35988709018434756, -1026.028501690069, 1600.1400862795222)"/><path id="path478" style="fill:#d9c5ae;fill-opacity:1;fill-rule:nonzero;stroke:none" d="m 4228.48,2722.29 c 0,-20.51 -16.66,-37.17 -37.21,-37.17 -20.53,0 -37.19,16.66 -37.19,37.17 v 67.1 c 0,20.51 16.66,37.17 37.19,37.17 20.55,0 37.21,-16.66 37.21,-37.17 v -67.1" transform="matrix(0.35988709018434756, 0, 0, -0.35988709018434756, -1026.028501690069, 1600.1400862795222)"/><path id="path480" style="fill:#f68326;fill-opacity:1;fill-rule:nonzero;stroke:none" d="m 3756.92,3883.44 c 0,-30.12 24.42,-54.55 54.55,-54.55 30.12,0 54.54,24.43 54.54,54.55 0,22.07 -20.49,39.33 -54.54,54.55 -27.51,12.28 -54.55,-24.44 -54.55,-54.55" transform="matrix(0.35988709018434756, 0, 0, -0.35988709018434756, -1026.028501690069, 1600.1400862795222)"/><path id="path482" style="fill:#35343a;fill-opacity:1;fill-rule:nonzero;stroke:none" d="m 3787.47,3883.44 c 0,-13.24 10.74,-23.99 24,-23.99 13.26,0 24,10.75 24,23.99 0,13.24 -10.74,24 -24,24 -13.26,0 -24,-10.76 -24,-24" transform="matrix(0.35988709018434756, 0, 0, -0.35988709018434756, -1026.028501690069, 1600.1400862795222)"/><path id="path484" style="fill:#f7cc35;fill-opacity:1;fill-rule:nonzero;stroke:none" d="m 4183.83,3883.44 c 0,-30.12 -24.42,-54.55 -54.55,-54.55 -30.12,0 -54.53,24.43 -54.53,54.55 0,22.07 20.48,39.33 54.53,54.55 27.5,12.28 54.55,-24.44 54.55,-54.55" transform="matrix(0.35988709018434756, 0, 0, -0.35988709018434756, -1026.028501690069, 1600.1400862795222)"/><path id="path486" style="fill:#35343a;fill-opacity:1;fill-rule:nonzero;stroke:none" d="m 4105.27,3883.44 c 0,-13.24 10.75,-23.99 24.01,-23.99 13.26,0 24,10.75 24,23.99 0,13.24 -10.74,24 -24,24 -13.26,0 -24.01,-10.76 -24.01,-24" transform="matrix(0.35988709018434756, 0, 0, -0.35988709018434756, -1026.028501690069, 1600.1400862795222)"/></svg>