<svg xmlns="http://www.w3.org/2000/svg" fill="rgba(0,0,0,0.65)" xmlns:xlink="http://www.w3.org/1999/xlink" version="1.1" x="0px" y="0px" viewBox="0 0 65 81.25" enable-background="new 0 0 65 65" xml:space="preserve"><g><path d="M43.8,37.3l-1.6-2.4c0.5-0.9,0.9-1.8,1.2-2.8l2.8-0.5l0-4.7l-2.8-0.5c-0.3-1-0.6-1.9-1.2-2.8l1.6-2.4l-3.3-3.3l-2.4,1.6   c-0.9-0.5-1.8-0.9-2.8-1.2l-0.5-2.8l-4.7,0l-0.5,2.8c-1,0.3-1.9,0.6-2.8,1.2l-2.4-1.6l-3.3,3.3l1.6,2.4c-0.5,0.9-0.9,1.8-1.2,2.8   l-2.8,0.5l0,4.7l2.8,0.5c0.3,1,0.6,2,1.2,2.8l-1.6,2.4l3.3,3.3l2.4-1.6c0.9,0.5,1.8,0.9,2.8,1.2l0.5,2.8l4.7,0l0.5-2.8   c1-0.3,1.9-0.6,2.8-1.2l2.3,1.6L43.8,37.3z M38.2,37.2l-0.4,0.3c-1,0.6-2.1,1.1-3.2,1.3L34,38.9l-0.5,2.6l-2.2,0l-0.5-2.6l-0.5-0.1   c-1.2-0.3-2.3-0.7-3.2-1.4l-0.4-0.3l-2.2,1.5L23,37l1.5-2.1l-0.3-0.4c-0.6-1-1.1-2.1-1.3-3.3l-0.1-0.5l-2.6-0.5l0-2.2l2.6-0.5   l0.1-0.5c0.3-1.2,0.7-2.2,1.4-3.2l0.3-0.4l-1.5-2.2l1.6-1.5l2.1,1.5l0.4-0.3c1-0.6,2.1-1.1,3.3-1.3l0.5-0.1l0.5-2.6l2.2,0l0.5,2.6   l0.5,0.1c1.1,0.2,2.2,0.7,3.2,1.4l0.4,0.3l2.2-1.5l1.5,1.6l-1.5,2.1l0.3,0.4c0.6,1,1.1,2.1,1.3,3.2l0.1,0.5l2.6,0.5l0,2.2l-2.6,0.5   L42,31.3c-0.3,1.2-0.7,2.3-1.4,3.2L40.4,35l1.5,2.2l-1.6,1.5L38.2,37.2z"/><path d="M32.5,23.1c-3.4,0-6.1,2.7-6.1,6.1c0,3.4,2.7,6.1,6.1,6.2h0c3.4,0,6.1-2.7,6.1-6.1c0-1.6-0.6-3.2-1.8-4.3   C35.7,23.7,34.2,23.1,32.5,23.1z M32.5,33.8v0.8V33.8c-2.6,0-4.6-2.1-4.6-4.6c0-2.5,2.1-4.6,4.6-4.6c1.2,0,2.4,0.5,3.3,1.4   c0.9,0.9,1.3,2,1.3,3.3C37.1,31.8,35,33.8,32.5,33.8z"/><path d="M47.9,39.2c0.1-0.2,0.3-0.5,0.5-0.8c1.7-3,2.5-6.5,2.4-10c-0.5-9.3-7.8-16.7-17.1-17.4C22.9,10.3,14,18.8,14,29.4   c0,2.1,0.4,4.2,1.1,6.3l1.5,3c0.2,0.4,0.5,0.8,0.7,1.3l0.1,0.1c2.1,3.7,3.7,7.8,4.9,12.1h-3.4v1.5h3.8c0.1,0.5,0.2,1,0.3,1.5h-2.5   v1.5h2.8c0.1,0.6,0.2,1.3,0.3,2.1c0.2,1.3,1.3,2.3,2.6,2.4c0.4,2.1,2.8,3.7,5.9,3.7c3,0,5.5-1.6,5.9-3.7h0.3c1.4,0,2.5-1,2.7-2.4   c0-0.2,0.1-0.4,0.1-0.6c0.1-0.5,0.2-1,0.3-1.5h2.8v-1.5h-2.5c0.1-0.5,0.2-1,0.4-1.5h3.7v-1.5h-3.3C43.8,47.5,45.6,43.1,47.9,39.2z    M18.7,39.2L18.7,39.2c-0.3-0.5-0.5-0.9-0.7-1.3l-1.5-2.9c-0.7-1.8-1-3.8-1-5.7c0-9.7,8.2-17.5,18-16.8c8.5,0.6,15.2,7.4,15.7,15.9   c0.2,3.2-0.6,6.4-2.1,9.1L47,37.7c-0.1,0.2-0.3,0.5-0.4,0.7c-2.4,4.1-4.4,8.8-5.7,13.7h-17C22.7,47.6,20.9,43.2,18.7,39.2z    M32.2,63.4c-2.1,0-3.9-0.9-4.3-2.2h8.6C36.1,62.4,34.3,63.4,32.2,63.4z M39.7,58c0,0.2-0.1,0.4-0.1,0.7c-0.1,0.6-0.6,1.1-1.2,1.1   H26.4c-0.6,0-1.2-0.5-1.2-1.1c-0.1-0.7-0.2-1.4-0.3-1.9h15C39.9,57.1,39.8,57.5,39.7,58z M40.2,55.2H24.6c-0.1-0.5-0.2-1-0.3-1.5   h16.3C40.5,54.2,40.3,54.7,40.2,55.2z"/><rect x="21.8" y="7.1" transform="matrix(0.3827 0.9239 -0.9239 0.3827 21.9867 -17.1968)" width="4" height="1.5"/><rect x="9.3" y="19.5" transform="matrix(0.9239 0.3827 -0.3827 0.9239 8.5957 -2.7853)" width="4" height="1.5"/><rect x="9.1" y="37.1" transform="matrix(0.9239 -0.3827 0.3827 0.9239 -13.6296 7.1487)" width="4" height="1.5"/><rect x="51.7" y="37.4" transform="matrix(-0.9239 -0.3827 0.3827 -0.9239 88.7018 94.0109)" width="4" height="1.5"/><rect x="51.8" y="19.8" transform="matrix(-0.9239 0.3827 -0.3827 -0.9239 111.4584 18.9507)" width="4" height="1.5"/><rect x="40.7" y="6" transform="matrix(0.9238 0.3828 -0.3828 0.9238 6.2216 -15.2717)" width="1.5" height="4"/><rect x="31.9" y="0.1" width="1.5" height="8.1"/><rect x="10.9" y="10.6" transform="matrix(0.7071 0.7071 -0.7071 0.7071 12.4029 -7.2268)" width="8.1" height="1.5"/><rect x="3.4" y="28.3" width="8.1" height="1.5"/><rect x="13.9" y="42.7" transform="matrix(-0.7071 -0.7071 0.7071 -0.7071 -8.0471 90.213)" width="1.5" height="8.1"/><rect x="46" y="46.3" transform="matrix(-0.7071 -0.7071 0.7071 -0.7071 52.2213 115.7076)" width="8.1" height="1.5"/><rect x="53.5" y="28.6" width="8.1" height="1.5"/><rect x="49.6" y="7.6" transform="matrix(0.7071 0.7071 -0.7071 0.7071 22.9618 -32.1897)" width="1.5" height="8.1"/></g></svg>