<svg xmlns="http://www.w3.org/2000/svg" fill="rgba(0,0,0,0.65)" xmlns:xlink="http://www.w3.org/1999/xlink" version="1.1" x="0px" y="0px" viewBox="0 0 65 81.25" enable-background="new 0 0 65 65" xml:space="preserve"><g><rect x="51.4" y="5.6" width="1.5" height="1.5"/><rect x="59" y="5.6" width="1.5" height="1.5"/><rect x="55.2" y="5.6" width="1.5" height="1.5"/><rect x="4.5" y="5.6" width="40.1" height="1.5"/><path d="M61.5,2.3h-58C1.4,2.3-0.3,3.9-0.3,6v41c0,2.1,1.7,3.8,3.8,3.8h20.3V58h-5.1v4.7h27.8V58h-5.1v-7.3h20.3   c2.1,0,3.8-1.7,3.8-3.8V6C65.3,3.9,63.6,2.3,61.5,2.3z M3.5,3.8h58c1.2,0,2.3,1,2.3,2.2v3.1H1.3V6C1.3,4.8,2.3,3.8,3.5,3.8z    M63.8,10.6v33.5H1.3V10.6H63.8z M44.9,59.5v1.7H20.1v-1.7H44.9z M39.8,58H25.3v-7.3h14.5V58z M61.5,49.3h-58c-1.2,0-2.3-1-2.3-2.3   v-1.3h62.5V47C63.8,48.3,62.7,49.3,61.5,49.3z"/><path d="M31.9,41c0.1,0,0.3,0.1,0.4,0.1l0.2,0.1L33,41c6.8-2,10.8-6.6,10.8-12.8v-9.9l-11.3-4.6l-11.3,4.6v9.9   C21.3,34.4,25,38.9,31.9,41z M22.8,19.3l9.8-4l9.8,4v8.9c0,5.5-3.4,9.6-9.7,11.4l-0.1,0c-0.1,0-0.1,0-0.2,0   c-6.2-1.8-9.6-5.9-9.6-11.3V19.3z"/><path d="M32.3,35.8l0.3,0.1l0.3-0.1c4-1.5,6-4,6-7.6v-6.6L32.5,19l-6.3,2.6v6.6C26.3,29.5,26.3,33.6,32.3,35.8z M27.8,22.6l4.8-1.9   l4.8,1.9v5.6c0,2.9-1.6,4.9-4.7,6.1c-4.8-1.9-4.8-4.9-4.8-6.1V22.6z"/><rect x="45.8" y="15" width="14.8" height="1.5"/><rect x="46.4" y="20.9" width="14.2" height="1.5"/><rect x="47.4" y="26.9" width="13.2" height="1.5"/><rect x="45.2" y="32.9" width="15.4" height="1.5"/><rect x="40.8" y="38.8" width="19.8" height="1.5"/><rect x="4.5" y="15" width="14.8" height="1.5"/><rect x="4.5" y="20.9" width="14.2" height="1.5"/><rect x="4.5" y="26.9" width="13.2" height="1.5"/><rect x="4.5" y="32.9" width="15.4" height="1.5"/><rect x="4.5" y="38.8" width="19.8" height="1.5"/></g></svg>