<svg xmlns="http://www.w3.org/2000/svg" fill="rgba(0,0,0,0.65)" xmlns:xlink="http://www.w3.org/1999/xlink" version="1.1" x="0px" y="0px" viewBox="0 0 65 81.25" enable-background="new 0 0 65 65" xml:space="preserve"><g><polygon points="31.2,38.9 30.1,37.7 29,38.8 31.2,41 36,36.3 34.9,35.2  "/><path d="M32.5,31.4c-3.5,0-6.4,2.9-6.4,6.4c0,3.5,2.9,6.4,6.4,6.4c3.5,0,6.4-2.9,6.4-6.4C38.9,34.3,36,31.4,32.5,31.4z M32.5,42.8   c-2.7,0-4.9-2.2-4.9-4.9c0-2.7,2.2-4.9,4.9-4.9c2.7,0,4.9,2.2,4.9,4.9C37.4,40.6,35.2,42.8,32.5,42.8z"/><path d="M32.5,12.7c-5.6,0-10.2,4.6-10.2,10.2v5.3c-2.3,0.3-4.2,2.3-4.2,4.7v9.8c0,2.6,2.1,4.8,4.8,4.8h19.2c2.6,0,4.8-2.1,4.8-4.8   v-9.8c0-2.4-1.8-4.4-4.2-4.7v-5.3C42.7,17.3,38.1,12.7,32.5,12.7z M37.4,28.2h-9.9v-5.1c0-2.7,2-5,4.6-5.1c1.4-0.1,2.7,0.4,3.7,1.3   c1,0.9,1.6,2.2,1.6,3.6V28.2z M32.5,14.2c4.8,0,8.7,3.9,8.7,8.7v5.2h-2.3v-5.2c0-1.8-0.7-3.5-2-4.7c-1.3-1.2-3-1.8-4.8-1.7   c-3.4,0.2-6,3.1-6,6.6v5.1h-2.3v-5.3C23.8,18.1,27.7,14.2,32.5,14.2z M45.4,32.9h-1.8v1.5h1.9V36h-2.3v1.5h2.3v1.7h-2.3v1.5h2.3   v1.7h-1.9v1.5h1.7c-0.4,1.3-1.6,2.2-3.1,2.2H22.9c-1.4,0-2.6-0.9-3.1-2.2h1.7v-1.5h-1.9v-1.7h2.3v-1.5h-2.3v-1.7h2.3V36h-2.3v-1.7   h1.9v-1.5h-1.8c0-1.8,1.5-3.2,3.2-3.2h19.2C43.9,29.7,45.3,31.1,45.4,32.9z"/><path d="M12.4,12.9c4.4-4.5,10.2-7.4,16.4-8.2c0.5,1.6,1.9,2.9,3.7,2.9c2.1,0,3.9-1.7,3.9-3.9s-1.7-3.9-3.9-3.9   c-2,0-3.6,1.5-3.8,3.4C22.1,4,15.9,7.1,11.3,11.8L12.4,12.9z M32.5,1.2c1.3,0,2.4,1.1,2.4,2.4c0,1.3-1.1,2.4-2.4,2.4   c-1.3,0-2.4-1.1-2.4-2.4C30.1,2.3,31.2,1.2,32.5,1.2z"/><path d="M4.1,40.9l1.4-0.4c-0.8-2.6-1.1-5.2-1.1-7.9c0-3.7,0.7-7.4,2.1-10.8c0.3,0.1,0.7,0.1,1,0.1c1.4,0,2.7-0.7,3.4-1.9   c0.5-0.9,0.7-1.9,0.4-2.9c-0.3-1-0.9-1.8-1.8-2.4c-0.6-0.3-1.3-0.5-2-0.5c-1.4,0-2.7,0.7-3.4,1.9C3.7,16.9,3.5,18,3.8,19   C4,19.8,4.5,20.5,5.2,21c-1.5,3.6-2.3,7.5-2.3,11.5C2.9,35.3,3.3,38.2,4.1,40.9z M5.5,16.8c0.4-0.7,1.2-1.2,2.1-1.2   c0.4,0,0.8,0.1,1.2,0.3c0.5,0.3,0.9,0.8,1.1,1.5c0.2,0.6,0.1,1.3-0.2,1.8C9,20.3,7.5,20.7,6.4,20c-0.5-0.3-0.9-0.8-1.1-1.5   C5.1,18,5.2,17.3,5.5,16.8z"/><path d="M10.1,49.5c0.5-0.5,0.8-1,1-1.7c0.3-1,0.1-2-0.4-3c-0.7-1.2-2-2-3.4-2c-0.7,0-1.3,0.2-1.9,0.5c-0.9,0.5-1.5,1.3-1.8,2.3   s-0.1,2,0.4,3c0.7,1.2,2,2,3.4,2c0.5,0,1-0.1,1.5-0.3c3.9,5.1,9.3,8.9,15.5,10.6l0.4-1.4C19,57.9,13.8,54.3,10.1,49.5z M5.3,47.9   c-0.3-0.6-0.4-1.2-0.2-1.8c0.2-0.6,0.6-1.1,1.1-1.4c0.4-0.2,0.8-0.3,1.2-0.3c0.9,0,1.7,0.5,2.1,1.2c0.3,0.6,0.4,1.2,0.2,1.8   c-0.2,0.6-0.6,1.1-1.1,1.4C7.5,49.5,6,49,5.3,47.9z"/><path d="M52.4,52.3c-4.4,4.4-10.1,7.2-16.2,8c-0.2-0.6-0.5-1.2-1-1.7c-0.7-0.7-1.7-1.2-2.8-1.2c-2.1,0-3.9,1.7-3.9,3.8   c0,2.1,1.7,3.9,3.8,3.9h0c2,0,3.6-1.5,3.8-3.4c6.5-0.8,12.5-3.8,17.2-8.5L52.4,52.3z M32.5,63.7v0.7V63.7c-1.3,0-2.4-1.1-2.4-2.4   c0-1.3,1.1-2.4,2.4-2.4c0.6,0,1.2,0.3,1.7,0.7c0.4,0.5,0.7,1.1,0.7,1.7C34.9,62.7,33.8,63.7,32.5,63.7z"/><path d="M55,15.7c-0.5,0.5-0.8,1-1,1.7c-0.3,1-0.2,2,0.3,3c0.7,1.2,2,2,3.4,2c0.7,0,1.3-0.2,1.9-0.5c1.9-1,2.5-3.4,1.5-5.3   c-0.7-1.2-2-2-3.4-2c-0.5,0-1,0.1-1.4,0.3c-4.1-5.5-10-9.5-16.6-11.1l-0.4,1.5C45.6,6.8,51.2,10.5,55,15.7z M59.8,17.3   c0.6,1.1,0.2,2.6-0.9,3.2c-1.1,0.6-2.6,0.2-3.2-0.9c-0.3-0.6-0.4-1.2-0.2-1.8c0.2-0.6,0.6-1.1,1.1-1.4c0.4-0.2,0.8-0.3,1.2-0.3   C58.6,16.1,59.4,16.6,59.8,17.3z"/><path d="M59.7,44.2c1.6-3.7,2.4-7.7,2.4-11.7c0-2.5-0.3-5.1-1-7.5l-1.5,0.4c0.6,2.3,0.9,4.7,0.9,7.1c0,3.8-0.8,7.5-2.3,11   c-0.3-0.1-0.7-0.1-1.1-0.1c-1.4,0-2.6,0.7-3.3,1.9c-1.1,1.8-0.5,4.2,1.3,5.3c0.6,0.4,1.3,0.5,2,0.5c1.4,0,2.6-0.7,3.3-1.9   c0.5-0.9,0.7-1.9,0.4-2.9C60.9,45.5,60.4,44.8,59.7,44.2z M59.3,48.5c-0.6,1.1-2.2,1.5-3.3,0.8c-1.1-0.7-1.5-2.1-0.8-3.3   c0.4-0.7,1.2-1.2,2.1-1.2c0.4,0,0.8,0.1,1.2,0.3c0.5,0.3,0.9,0.8,1.1,1.5C59.8,47.3,59.7,47.9,59.3,48.5z"/></g></svg>