<svg xmlns="http://www.w3.org/2000/svg" fill="rgba(0,0,0,0.65)" version="1.1" x="0px" y="0px" viewBox="0 0 64 64" xml:space="preserve"><path d="M32.759 21.35c-0.379-0.443-1.139-0.443-1.518 0l-12 14c-0.255 0.296-0.313 0.714-0.149 1.068S19.609 37 20 37h2v11c0 0.553 0.447 1 1 1h5 8 5c0.553 0 1-0.447 1-1V37h2c0.391 0 0.745-0.228 0.908-0.582s0.105-0.772-0.149-1.068L32.759 21.35zM23.888 33H36v-2H25.602L32 23.536 41.826 35H41 23h-0.826L23.888 33zM29 47v-6h6v6H29zM40 47h-3v-7c0-0.553-0.447-1-1-1h-8c-0.553 0-1 0.447-1 1v7h-3V37h16V47z"/><rect x="32" y="43" width="2" height="2"/><path d="M63 0H1C0.447 0 0 0.447 0 1v8 52c0 0.553 0.447 1 1 1h62c0.553 0 1-0.447 1-1V10 9 1C64 0.447 63.553 0 63 0zM62 2v6H2V2H62zM62 60H2V10h60V60z"/><rect x="4" y="4" width="2" height="2"/><rect x="8" y="4" width="2" height="2"/><rect x="58" y="4" width="2" height="2"/><path d="M5 58h54c0.553 0 1-0.447 1-1V13c0-0.553-0.447-1-1-1H5c-0.553 0-1 0.447-1 1v44C4 57.553 4.447 58 5 58zM6 14h52v42H6V14z"/></svg>