<svg xmlns="http://www.w3.org/2000/svg" fill="rgba(0,0,0,0.65)" version="1.1" x="0px" y="0px" viewBox="0 0 36 65" xml:space="preserve"><path d="M35 0H1C0.448 0 0 0.448 0 1v62c0 0.552 0.448 1 1 1h34c0.552 0 1-0.448 1-1V1C36 0.448 35.552 0 35 0zM34 2v6H2V2H34zM34 10v42H2V10H34zM2 62v-8h32v8H2z"/><circle cx="18" cy="58" r="2"/><rect x="12" y="4" width="8" height="2"/><rect x="22" y="4" width="2" height="2"/><path d="M5 50h26c0.552 0 1-0.448 1-1V13c0-0.552-0.448-1-1-1H5c-0.552 0-1 0.448-1 1v36C4 49.552 4.448 50 5 50zM6 14h24v34H6V14z"/></svg>