<svg version="1.1" id="Layer_2_1_" xmlns="http://www.w3.org/2000/svg" x="0" y="0" viewBox="140 430 160 160" xml:space="preserve">
  <ellipse fill="#5e464d" cx="219.83" cy="510.93" rx="67.25" ry="68.04"></ellipse>
  <path fill="#fff" d="M198.68,571.26c2.76.94,12,4,12.39,1,.21-1.61-4.64-3.27-11.26-6.77a105.85,105.85,0,0,1-25.48-18.82A58.51,58.51,0,0,1,156.79,506c-.56-20.59,7.49-37.23,20.73-48a67.85,67.85,0,0,0-26.38,52.05A63.4,63.4,0,0,0,162.73,549a44.15,44.15,0,0,0,8.44,8.31c7.49,5.67,18.45,10.92,27.51,14"></path>
  <path fill="#fff" d="M288,495.33c-4.18-19.61-17.14-33.34-34.48-43,13.26,9.44,31.92,29.5,20.92,47.2-9.33,14.18-32,11.4-44.4,4.68-14.73-8-33.19-26-15-43.56,11.78-11.38,49.31,1.37,42.69,18.38-3.86,9.89-18.84,7.7-25.58,2.86-5-3.57-9.16-9.71-6.94-16,.71-2,.61-5.19-2.26-2.87a11.31,11.31,0,0,0-3.59,7.24c-3.14,22.18,36.37,39.37,48.09,17.91,6.08-11.14-3.78-27.3-16.18-33.93-9.35-5-19-8.51-30.94-7.65-19,1.35-35,13.25-37,32.69s10.91,36.7,26.12,47.1c16,10.92,37.48,18.13,57.14,11.61,17.63-5.84,24.91-26.07,21.37-42.59"></path>
  <path fill="#3fe0c5" d="M263.21,480.31c1.89-12.71-9.6-21.43-20.21-25.4-12.51-4.68-29-2.62-38.15,7.74-6.68,7.61-6.23,18.66-2.79,27.59,5.19,13.5,16.92,23.26,30.58,27.47,9.7,3,21.43,4.31,31.27,1.14,14.34-4.61,19-19.57,16-33.27a39.46,39.46,0,0,0-2.91-8.58c-1.81-3.8-7.36-11.5.29-2.12a33.44,33.44,0,0,1,2.21,3.27,36.62,36.62,0,0,1,3.72,8.27c4.17,12.79.9,27.71-10.68,35.43-8.87,5.91-20.14,6.61-30.43,5.13a57.5,57.5,0,0,1-35.81-19.37c-8.25-9.78-13.88-23.81-10.49-36.63,2.49-9.39,10.11-16.4,19.23-19.35a43,43,0,0,1,34.66,4.07c5.2,3,10,7.23,12.62,12.73a18.76,18.76,0,0,1,1.89,7.95,16.09,16.09,0,0,1-.25,3.33c-.08.4-.92,1.53-.8.6"></path>
</svg>